<svg enable-background="new 0 0 500 500" viewBox="0 0 500 500" xmlns="http://www.w3.org/2000/svg" xmlns:xlink="http://www.w3.org/1999/xlink"><clipPath id="a"><path d="m185.2 409.3c-123.9-7.2-223.2-138.2-157.3-214.2 51.1-59 119.3 26.9 182.8-16.4 97.8-66.5 256.2-78.6 277.2 5.2 21 83.9-48.5 214.9-100.3 222.8-51.7 7.9-202.4 2.6-202.4 2.6z"/></clipPath><clipPath id="b"><path d="m185.2 409.3c-123.9-7.2-223.2-138.2-157.3-214.2 51.1-59 119.3 26.9 182.8-16.4 97.8-66.5 256.2-78.6 277.2 5.2 21 83.9-48.5 214.9-100.3 222.8-51.7 7.9-202.4 2.6-202.4 2.6z"/></clipPath><path d="m185.2 409.3c-123.9-7.2-223.2-138.2-157.3-214.2 51.1-59 119.3 26.9 182.8-16.4 97.8-66.5 256.2-78.6 277.2 5.2 21 83.9-48.5 214.9-100.3 222.8-51.7 7.9-202.4 2.6-202.4 2.6z" fill="#fff"/><path d="m201.2 231.8c1.3 31.5 1 48.5-10.5 61.6s-43.6 9.8-43.6 9.8-3.2 46.3-48.1 48.3-51.3-57.7-16.2-72.9c33.5-14.6 44.1-18.8 55.7-54.8 10.6-32.9 43.6-26.6 51.4-12.9 8.1 13.7 11.3 20.9 11.3 20.9z" fill="#303c60"/><path d="m186.5 392.3s21.2 4.1 22.3 3.9 24.2-10.5 26.6-9 16.4 7.4 19.4 8.7c3.1 1.3-1.7 1.7-4.1 1.7s-16.2-5.7-17.7-4.6 12 3.3 12 4.1-36.3 9.2-38.4 9.2c-2.2 0-19-1.5-19-1.5z" fill="#fcab75"/><path d="m168.9 276.6c11.4 2.2 18.1 14.3 20.3 24.9s-20.3-24.9-20.3-24.9z" fill="#c68b14"/><path clip-path="url(#a)" d="m149.8 268.5s-22 14.7-33.7 22c-11.8 7.2 4.3 84.9 8.2 113.7s72.1 2.6 72.1 2.6-4.6-24.2 1.3-63.2c4.2-27.9-11.2-45.4-20.1-57.6-22.4-30.7-27.8-17.5-27.8-17.5z" fill="#f4bd46"/><path clip-path="url(#b)" d="m128.2 290.7c25.2 30.8 33.8 36.6 27.5 57.3-4.9 16.4-6.6 22.3-7.5 27.8-1 5.6 46.8-3.6 46.8-3.6l-.3 18s-37.7 18-56 21.6-29.8-.7-29.8-.7z" fill="#c68b14"/><path d="m444.1 414.1h-298.5c-2.2 0-3.9-1.7-3.9-3.9s1.7-3.9 3.9-3.9h298.5c2.2 0 3.9 1.7 3.9 3.9 0 2.1-1.8 3.9-3.9 3.9z" fill="#f39225"/><path d="m157.9 237.4-11.4 33.6s12.4 33.7 22.9 26.2c3.6-2.6-1.3-22.9-1.3-22.9l7.6-27.3z" fill="#ffd0b0"/><path d="m121.6 289.4c-15.7 1.7-17 22.9-24.2 58.3s-5 58.7-1.6 63.2c8.2 10.8 100.3-26.9 111.7-26.5 7.9.2 1.3-13.1 1.3-13.1l-87.8 13.5s12.4-41 12.4-61.9c0-21-5.9-34.1-11.8-33.5z" fill="#ffd0b0"/><path d="m203.2 372c9.2-2.3 22.6-7.5 25.2-5.2s13.4 18.7 17 23.3-1.6 1-5.6-2.6c-3.9-3.6-7.2-5.6-7.2-5.6s-4.9 4.6-9.5 7.2-6.2-2.6-14.1-3.9-27.5 5.6-27.5 5.6z" fill="#ffd0b0"/><path d="m123.4 286.8c-9.6.4-17 8.5-19.7 21-2.6 12.4-10.3 52-10.3 52s-1.5 1.1 14.4 3.9 29-.4 29-.4 3.3-22.5 2.4-38-4.4-30.1-10-35.2c-5.6-5-5.8-3.3-5.8-3.3z" fill="#f4bd46"/><path d="m168.1 274.4 7.6-27.3-17.9-9.6-2.7 8.1c-.6 27.1 6.4 36.2 11 39.5 1.5 1 2.7.2 3.8-1.5-.7-4.9-1.8-9.2-1.8-9.2z" fill="#fcab75"/><path d="m204.5 240.6c0 14.6-1.7 32.5-14.4 32.1-19.7-.7-32-15.9-32-30.5s10.3-26.5 23-26.5c12.6 0 23.4 10.3 23.4 24.9z" fill="#ffd0b0"/><path d="m351.2 406.3h-73.7l30.3-66.7c.9-1.9 2.8-3.2 5-3.2h66.9c1.5 0 2.6 1.6 1.9 3z" fill="#9bd6e8"/><path d="m351 406.3h-135.9c0-4.7 3.8-8.6 8.6-8.6h127.3z" fill="#9bd6e8"/><path d="m379.7 336.4h-58.9c-2.1 0-4.1 1.2-5 3.2l-30.3 66.7h65.7l30.4-66.9c.6-1.4-.4-3-1.9-3z" fill="#7bcee8"/><path d="m182.9 210.6c13.9-1 22.2 11.7 24.6 22.9 1.7 8 .9 9.6.9 9.6s-1.5 2.2-12.4 2.8c-10.9.7-12.2.4-12.2.4l-.7-12.7-3.3 12.2s-1.7 2.4-8.5-.9-9.8-14.2-9.8-14.2-1.5-7.2 3.7-12c5.1-4.6 17.7-8.1 17.7-8.1z" fill="#303c60"/><path d="m172.5 243.5c-1.3 8.8-8.4 15.1-15.8 14s-12.3-9.2-10.9-18c1.3-8.8 8.4-15.1 15.8-14s12.3 9.2 10.9 18z" fill="#d54a41"/><path d="m167.2 243.3c-1.2 8.2-7 14.1-12.9 13.2s-9.7-8.3-8.5-16.4c1.2-8.2 7-14.1 12.9-13.2 6 .8 9.7 8.2 8.5 16.4z" fill="#f39892"/><path d="m158.2 241.4c-.7 4.5-3.1 7.9-5.5 7.5-2.3-.4-3.7-4.3-3-8.8s3.1-7.9 5.5-7.5c2.3.4 3.7 4.3 3 8.8z" fill="#f2e5de"/><path d="m157.8 225.7c6.4-23.8 28.4-20.3 34-17 4.7 2.8 5.4 6.7 5.4 6.7s-6.1-4.9-16.4-3.1c-9.8 1.7-15.6 7.5-16.4 13.9-.4 3.3-6.6-.5-6.6-.5z" fill="#d54a41"/><path d="m59.8 302.4c-.3 0-.5-.3-.5-.6.6-6 3.6-12.2 8.5-17.4 5.5-5.9 13.4-10.5 22.7-13.4 20.8-6.4 38.9-14.6 50.3-49.7.1-.3.4-.4.6-.3.3.1.4.4.3.6-5.2 16.1-12.4 27.9-21.8 35.9-8.3 7.1-17.7 10.9-29.2 14.5-9.2 2.8-16.9 7.4-22.3 13.1-4.7 5-7.6 11-8.2 16.8.1.3-.1.5-.4.5z" fill="#303c60"/><path d="m69.2 278.1c-.2 0-.3-.1-.4-.2-.2-.2-.1-.5.1-.7.1-.1 9-6.9 21.8-9.7 24.7-5.4 41.2-20.3 47.9-42.9.1-.3.4-.4.6-.3.3.1.4.4.3.6-4.1 14-11.9 25-23 32.8-7.2 5-15.8 8.6-25.6 10.8-12.6 2.8-21.3 9.4-21.4 9.5s-.2.1-.3.1z" fill="#303c60"/><path d="m412 386.3c0-1.4 16.4-46.8 5.3-76-7.8-20.5-9-45-9-45s-15.1 21.7-4.9 54.9c6.3 20.4 8.9 26.1 9.4 32.1s-2.5 36-2.5 36z" fill="#9cd499"/><path d="m410.4 388.7c-.1 0-.1 0-.2 0-.2-.1-.3-.3-.3-.5 0-.3 3-30 2.5-35.9-.4-3.9-1.6-7.6-4.2-15.7-1.4-4.2-3-9.3-5.2-16.2-5.3-17.2-3.7-31.4-1.4-40.1 2.5-9.5 6.2-14.9 6.4-15.2.1-.2.3-.3.6-.2.2.1.4.2.4.5 0 .2 1.3 24.7 9 44.9 4.2 10.9 5 25.4 2.5 42.9-2 14-5.6 25.9-7.1 31-.3 1.2-.6 2.2-.7 2.4 0 .1 0 .2-.1.3l-1.6 1.9c-.3-.2-.5-.1-.6-.1zm-2.5-121.9c-1.2 2.1-3.7 6.8-5.4 13.6-2.3 8.7-3.9 22.5 1.4 39.5 2.1 6.9 3.8 12.1 5.2 16.2 2.7 8.2 3.9 11.9 4.3 16 .5 5.3-1.7 28.2-2.3 34.5l.5-.6c.1-.3.2-.9.7-2.4 9.5-31.7 11.1-56.4 4.6-73.2-6.6-17.3-8.5-37.8-9-43.6z" fill="#74b570"/><path d="m415.6 390.9c-2.5-50.5 9.6-78.1 34.1-99.9 24.6-21.8 25.7-27.6 25.7-27.6s-3.8 42.6-18 57.3-34.9 25.7-37.9 33.3-1.9 33.3-1.9 33.3l-1.9 4.6v-1z" fill="#9cd499"/><path d="m412.6 395.3c-.3-.8 5.2-47.2 25.1-50 19.9-2.7 24.6 1.9 38.2-.3 9.7-1.6 17.2-4.6 17.2-4.6s-5.2 13.2-22.9 18.6c-12.6 3.8-28.9-2.5-38.5-.8-9.6 1.6-14.5 22.1-14.5 22.1l-1.6 10.6z" fill="#9cd499"/><path d="m415.3 388.4c-.3 0-.5-.2-.5-.5s-2.9-32.9 11-57.9c7.1-12.9 15-20.4 22.5-27.6 7-6.7 13.7-13.1 18.7-23.2.1-.2.4-.3.7-.2.2.1.4.4.2.7-5.1 10.2-11.8 16.6-18.9 23.4-7.5 7.2-15.2 14.6-22.3 27.4-13.7 24.7-10.9 57-10.9 57.3s-.2.6-.5.6z" fill="#74b570"/><path d="m413.9 381.9h-.1c-.3-.1-.4-.4-.3-.6 5.2-18 11.2-28.5 18.9-33.1 6.8-4.1 13.9-2.8 21.4-1.5 1.8.3 3.7.7 5.6.9 16.3 2.1 24.2-1.8 24.3-1.9.2-.1.6 0 .7.2s0 .6-.2.7c-.3.2-8.2 4.1-24.9 2-1.9-.2-3.8-.6-5.6-.9-7.3-1.3-14.2-2.5-20.7 1.4-7.4 4.4-13.3 14.7-18.4 32.5-.3.1-.5.3-.7.3z" fill="#74b570"/><path d="m440 311.8c-.2 0-.3-.1-.4-.2-.2-.2-.1-.5.1-.7.1-.1 9.8-7.5 23.3-10.1.3-.1.5.1.6.4s-.1.5-.4.6c-13.2 2.5-22.8 9.8-22.9 9.9s-.2.1-.3.1z" fill="#74b570"/><path d="m424.6 333.8c-.1 0-.2 0-.3-.1-.2-.1-.3-.5-.2-.7 7.1-12 15.4-15 33.6-20.7.3-.1.5.1.6.3.1.3-.1.5-.3.6-17.9 5.6-26.1 8.6-33 20.2-.1.3-.3.4-.4.4z" fill="#74b570"/><path d="m420.2 407.7h-12.2c-4.3 0-8-3.1-8.8-7.3l-3.9-20.6h37.7l-3.9 20.6c-.9 4.2-4.6 7.3-8.9 7.3z" fill="#f39892"/><path d="m431.9 385.1h-35.5c-.6 0-1-.5-1-1 0-.6.5-1 1-1h35.5c.6 0 1 .5 1 1s-.4 1-1 1z" fill="#d54a41"/><g fill="none" stroke="#5d54c1" stroke-miterlimit="10"><path d="m363 158.9v.4c-.6.4-1.7 1-2.7 1.5h-.1c-.1-.1-.1-.6 0-.7 1.2-.5 2.1-.9 2.8-1.2-.1 0-.1 0 0 0z"/><path d="m369.9 156.5c0 .1 0 .4-.1.4-.7.3-1.9.8-2.9 1.1h-.1c0-.1 0-.6.1-.7 1.4-.3 2.3-.6 3-.8-.1 0-.1 0 0 0z"/><path d="m377.1 155.3c0 .1-.1.4-.2.4-.7.1-2 .4-3 .6h-.1c0-.2.1-.6.2-.6 1.4-.3 2.4-.4 3.1-.4-.1-.1-.1-.1 0 0z"/><path d="m384.3 155.1c0 .1-.1.3-.2.3-.7 0-2 .1-3.1.1 0 0-.1 0-.1-.1 0-.2.2-.6.3-.6 1.5.2 2.5.2 3.1.3z"/><path d="m391.6 156.1c0 .1-.2.3-.3.3-.7-.1-2-.2-3-.3 0 0 0 0 0-.1 0-.2.3-.6.4-.6 1.3.4 2.3.5 2.9.7z"/><path d="m398.6 158.2c0 .1-.2.3-.3.3-.7-.2-2-.5-3-.8 0 0 0 0 0-.1.1-.1.4-.5.4-.5 1.4.5 2.3.9 2.9 1.1z"/><path d="m424.2 183c-.1 0-.4 0-.4 0-.4-.6-1-1.8-1.5-2.7v-.1c.1-.1.6-.1.7 0 .6 1.3 1 2.2 1.2 2.8.1 0 .1 0 0 0z"/><path d="m426.6 189.9c-.1 0-.4 0-.4-.1-.3-.7-.7-1.9-1.1-2.9v-.1c.1 0 .6 0 .7.1.4 1.4.7 2.4.8 3 .1 0 .1 0 0 0z"/><path d="m427.9 197.1c-.1 0-.4-.1-.4-.2-.1-.7-.4-2-.6-3v-.1c.2 0 .6.1.6.2.2 1.5.3 2.5.4 3.1z"/><path d="m406.4 240.8c-.1-.1-.1-.4 0-.4.6-.4 1.6-1.3 2.4-1.9h.1c.1.1.2.6.1.6-1.2.8-2.1 1.4-2.6 1.7z"/><path d="m399.9 244.2c0-.1 0-.4 0-.4.6-.4 1.8-1 2.7-1.5h.1c.1.1.1.6 0 .7-1.3.5-2.2 1-2.8 1.2z"/><path d="m393 246.5c0-.1 0-.4.1-.4.7-.3 1.9-.7 2.9-1.1h.1c0 .1 0 .6-.1.7-1.4.4-2.4.7-3 .8 0 .1 0 .1 0 0z"/><path d="m385.8 247.8c0-.1.1-.4.2-.4.7-.1 2-.4 3-.6h.1c0 .2-.1.6-.2.6-1.5.2-2.5.3-3.1.4z"/><path d="m378.5 247.8c0-.1.1-.3.2-.3.7 0 2-.1 3.1-.1 0 0 .1 0 .1.1 0 .2-.2.6-.3.6-1.5-.1-2.5-.2-3.1-.3 0 .1 0 .1 0 0z"/><path d="m371.2 246.8c0-.1.2-.3.3-.3.7.1 2 .2 3 .4v.1c0 .2-.3.6-.4.5-1.2-.3-2.2-.5-2.9-.7z"/><path d="m364.3 244.6c0-.1.2-.3.3-.3.7.2 2 .5 2.9.8v.1c-.1.1-.4.5-.4.5-1.3-.5-2.2-.8-2.8-1.1-.1.1 0 0 0 0z"/><path d="m357.7 241.3c0-.1.3-.2.3-.2.6.3 1.9.8 2.8 1.3v.1c-.1.1-.4.4-.5.4-1.2-.7-2-1.2-2.6-1.6 0 .1 0 .1 0 0z"/><path d="m351.8 237.1c.1-.1.3-.2.4-.1.6.4 1.7 1.1 2.5 1.7v.1c-.1.1-.5.4-.6.3-1.1-.9-1.9-1.6-2.3-2-.1 0-.1 0 0 0z"/><path d="m346.6 232c.1-.1.3-.1.4-.1.5.5 1.5 1.4 2.2 2.1v.1c-.1.1-.6.3-.6.2-1-1.1-1.6-1.8-2-2.3-.1 0-.1 0 0 0z"/><path d="m342.2 226.1c.1-.1.4-.1.4 0 .4.6 1.3 1.6 1.9 2.4v.1c-.1.1-.6.2-.6.1-.8-1.2-1.4-2-1.7-2.6z"/><path d="m338.8 219.6h.4c.4.6 1 1.8 1.5 2.7v.1c-.1.1-.6.1-.7 0-.5-1.3-1-2.2-1.2-2.8z"/><path d="m336.5 212.7c.1 0 .4 0 .4.1.2.7.7 1.9 1.1 2.9v.1c-.2 0-.6 0-.7-.1-.4-1.4-.7-2.4-.8-3z"/><path d="m335.3 205.5c.1 0 .4.1.4.2.1.7.4 2 .6 3v.1c-.2 0-.6-.1-.6-.2-.2-1.5-.4-2.5-.4-3.1z"/><path d="m335.3 198.2c.1 0 .3.1.3.2 0 .7.1 2 .1 3.1 0 0 0 .1-.1.1-.2 0-.6-.2-.6-.3.2-1.5.2-2.5.3-3.1-.1 0-.1 0 0 0z"/><path d="m336.4 190.9c.1 0 .3.2.3.3-.1.7-.2 2-.4 3 0 0 0 0-.1 0-.2 0-.6-.3-.5-.4.3-1.3.5-2.2.7-2.9-.1 0-.1 0 0 0z"/><path d="m338.6 184c.1 0 .3.2.3.3-.2.7-.5 2-.8 2.9 0 0 0 0-.1 0-.1-.1-.5-.4-.5-.5.5-1.2.8-2.1 1.1-2.7-.1-.1-.1 0 0 0z"/><path d="m357.2 162c.1.1.1.4 0 .4-.6.4-1.6 1.3-2.4 1.9h-.1c-.1-.1-.2-.6-.1-.6 1.2-.8 2-1.4 2.6-1.7-.1-.1-.1-.1 0 0z"/><path d="m276.1 173.9c.1.1.1.5 0 .5-.8.5-2.3 1.3-3.4 2h-.1c-.1-.2-.1-.8 0-.9 1.6-.8 2.7-1.3 3.5-1.6 0-.1 0-.1 0 0z"/><path d="m285 170.8c0 .1 0 .5-.1.5-.9.3-2.4 1-3.7 1.4h-.1c-.1-.2 0-.8.1-.8 1.8-.6 3-.9 3.8-1.1 0-.1 0-.1 0 0z"/><path d="m294.3 169.2c0 .1-.1.5-.2.5-.9.2-2.6.6-3.9.8 0 0-.1 0-.1-.1 0-.2.1-.8.2-.8 1.9-.2 3.1-.4 4-.4 0-.1 0-.1 0 0z"/><path d="m303.7 169c0 .1-.2.4-.3.4-.9 0-2.6.2-3.9.2 0 0-.1 0-.1-.1 0-.2.2-.8.4-.8 1.7.1 3 .2 3.9.3 0-.1 0-.1 0 0z"/><path d="m338.2 182.5c-.1.1-.4.3-.5.2-.8-.5-2.2-1.4-3.3-2.2v-.1c.1-.2.7-.5.7-.4 1.5 1.2 2.5 2 3.1 2.5z"/><path d="m345 189.1c-.1.1-.4.2-.5.1-.7-.6-2-1.7-2.9-2.7v-.1c.1-.1.7-.4.8-.3 1.2 1.4 2.1 2.3 2.6 3 0-.1 0-.1 0 0z"/><path d="m350.6 196.6c-.1.1-.5.1-.5 0-.6-.7-1.7-2-2.5-3.1v-.1c.2-.1.8-.3.8-.2 1.1 1.6 1.8 2.7 2.2 3.4.1-.1.1-.1 0 0z"/><path d="m355.1 204.9c-.1.1-.5.1-.5 0-.5-.8-1.3-2.3-1.9-3.4v-.1c.2-.1.8-.1.9 0 .6 1.5 1.2 2.7 1.5 3.5z"/><path d="m358.1 213.8c-.1 0-.5 0-.5-.1-.3-.9-1-2.4-1.4-3.7v-.1c.2-.1.8 0 .8.1.6 1.7 1 3 1.1 3.8.1 0 .1 0 0 0z"/><path d="m359.7 223.1c-.1 0-.5-.1-.5-.2-.2-.9-.6-2.6-.8-3.9 0 0 0-.1.1-.1.2 0 .8.1.8.2.2 1.9.4 3.1.4 4 .1 0 .1 0 0 0z"/><path d="m359.9 232.5c-.1 0-.4-.2-.4-.3 0-.9-.2-2.6-.2-3.9 0 0 0-.1.1-.1.2 0 .8.2.8.4-.2 1.7-.2 3-.3 3.9z"/><path d="m358.5 241.8c-.1 0-.4-.2-.4-.3.1-.9.2-2.6.4-3.9 0 0 0-.1.1-.1.2 0 .7.4.7.5-.3 1.7-.5 3-.8 3.8.1 0 .1 0 0 0z"/><path d="m355.8 250.8c-.1 0-.4-.3-.3-.4.2-.9.7-2.5 1.1-3.8 0 0 0-.1.1 0 .2.1.7.5.6.6-.8 1.6-1.2 2.9-1.5 3.6z"/><path d="m351.6 259.3c-.1-.1-.3-.4-.3-.4.4-.8 1.1-2.4 1.6-3.6h.1c.2.1.6.6.5.7-.9 1.6-1.5 2.7-1.9 3.4.1-.1.1-.1 0-.1z"/><path d="m346.2 266.9c-.1-.1-.3-.4-.2-.5.5-.8 1.4-2.2 2.2-3.3h.1c.2.1.5.7.4.7-1.2 1.5-2 2.5-2.5 3.1 0 .1 0 .1 0 0z"/><path d="m339.6 273.7c-.1-.1-.2-.4-.1-.5.6-.7 1.7-2 2.7-2.9h.1c.1.1.4.7.3.8-1.4 1.2-2.3 2.1-3 2.6z"/><path d="m332.1 279.3c-.1-.1-.1-.5 0-.5.7-.6 2-1.7 3.1-2.5h.1c.1.2.3.8.2.8-1.6 1.1-2.7 1.8-3.4 2.2 0 .1 0 .1 0 0z"/><path d="m323.7 283.7c-.1-.1-.1-.5 0-.5.8-.5 2.3-1.3 3.4-1.9h.1c.1.2.1.8 0 .9-1.5.7-2.7 1.2-3.5 1.5.1.1.1.1 0 0z"/><path d="m314.8 286.7c0-.1 0-.5.1-.5.9-.3 2.4-1 3.7-1.4h.1c.1.2 0 .8-.1.8-1.7.6-3 1-3.8 1.1 0 .1 0 .1 0 0z"/><path d="m305.5 288.3c0-.1.1-.5.2-.5.9-.2 2.6-.6 3.9-.8 0 0 .1 0 .1.1 0 .2-.1.8-.2.8-1.9.2-3.2.4-4 .4 0 .1 0 .1 0 0z"/><path d="m296.1 288.4c0-.1.2-.4.3-.4.9 0 2.6-.2 3.9-.2 0 0 .1 0 .1.1 0 .2-.2.8-.4.8-1.8-.2-3.1-.2-3.9-.3 0 .1 0 .1 0 0z"/><path d="m286.8 287c0-.1.2-.4.3-.4.9.1 2.6.3 3.9.5 0 0 .1 0 .1.1 0 .2-.4.7-.5.7-1.7-.4-3-.6-3.8-.9 0 .1 0 .1 0 0z"/><path d="m277.8 284.2c0-.1.3-.4.4-.3.9.2 2.5.7 3.8 1.1 0 0 .1 0 0 .1-.1.2-.5.7-.6.6-1.6-.7-2.8-1.1-3.6-1.5 0 .1 0 .1 0 0z"/><path d="m242.1 243.1c.1 0 .5 0 .5.1.3.9.9 2.4 1.4 3.7v.1c-.2.1-.8 0-.8-.1-.6-1.7-1-3-1.1-3.8-.1 0-.1 0 0 0z"/><path d="m240.5 233.8c.1 0 .5.1.5.2.2.9.5 2.6.8 3.9 0 0 0 .1-.1.1-.2 0-.8-.1-.8-.2-.2-1.9-.4-3.1-.4-4-.1 0 0 0 0 0z"/><path d="m240.5 224.4c.1 0 .4.2.4.3 0 .9.1 2.6.1 3.9 0 0 0 .1-.1.1-.2 0-.8-.2-.8-.4.2-1.8.3-3.1.4-3.9-.1 0-.1 0 0 0z"/><path d="m241.9 215.1c.1 0 .4.2.4.3-.1.9-.3 2.6-.5 3.9 0 0 0 .1-.1.1-.2 0-.7-.4-.7-.5.4-1.7.6-3 .9-3.8-.1 0-.1 0 0 0z"/><path d="m244.7 206.1c.1 0 .4.3.3.4-.2.9-.7 2.5-1.1 3.8 0 0 0 .1-.1 0-.2-.1-.7-.5-.6-.6.7-1.6 1.2-2.8 1.5-3.6-.1 0 0 0 0 0z"/><path d="m252.4 193.8c0 .1 0 .1 0 0"/><path d="m268.7 177.8c.1.1.1.5 0 .5-.7.6-2 1.6-3.1 2.4h-.1c-.1-.2-.3-.8-.2-.8 1.6-1 2.6-1.7 3.4-2.1-.1-.1-.1 0 0 0z"/></g><path d="m347 156.6v31.8h-32.8v-31.8zm-31 25.2h.7 27.1.7v-.7-22-.7h-.7-27.1-.7v.7 22zm31.7-25.8h-34.1v33.2h34.1zm-31 25.2v-22h27.1v22z" fill="#5d54c1"/><path d="m323.5 163.8c1.1 0 2 .9 2 2s-.9 2-2 2-2-.9-2-2 .9-2 2-2m0-.7c-1.5 0-2.6 1.2-2.6 2.6 0 1.5 1.2 2.6 2.6 2.6 1.5 0 2.6-1.2 2.6-2.6s-1.1-2.6-2.6-2.6z" fill="#5d54c1"/><path d="m336.3 166.5 5.1 9.4h-20.4l2.7-4.1 2.1 1.3.6.4.4-.5 2.7-3.9 3.1 2.1.6.4.4-.6zm.1-1.3-3.5 5.4-3.7-2.5-3 4.5-2.6-1.7-3.5 5.4v.3h22.6z" fill="#5d54c1"/><path d="m297.7 254.7s.5 2.6 3.3 3.7c2.8 1.2 6.6.7 6.6.7l-3.3-46.8-9.1 1z" fill="#c87629"/><path d="m381.2 197.2-31.9-16.6c-1.3-.7-3-.1-3.8 1.4l-10.3 19.6c-.8 1.5-.3 3.2 1 3.9l31.9 16.6c1.3.7 3 .1 3.8-1.4l10.3-19.6c.8-1.5.4-3.2-1-3.9z" fill="#fff"/><path d="m375.7 204.9c-1.3 2.6-4.5 3.6-7.1 2.2-2.6-1.3-3.6-4.5-2.2-7.1 1.3-2.6 4.5-3.6 7.1-2.2 2.5 1.3 3.5 4.5 2.2 7.1z" fill="#da4643"/><path d="m347.9 192.9.2 2.6 1.8 1.3-.1-8.4-3.2 2.7-.1 1.7z" fill="#36c5f3"/><path d="m349.9 196.8-1.8-1.3-.2-2.6-1.4-.1.1-1.7-12.5 10.7.4 4.2 15.8 8z" fill="#36495e"/><path d="m356.5 202.2.4 1.3 1 .5.9.9-.1-6.8-4.2 2.1.8 1.7z" fill="#36c5f3"/><path d="m358.8 204.9-.9-.9-1-.5-.4-1.3-1.2-.3-.8-1.7-16.2 8 5.1 2.7 15.7 8z" fill="#36495e"/><path d="m385.3 196.4-37.6-19.6c-1.6-.8-3.6-.1-4.5 1.7l-12.2 23.1c-.9 1.7-.4 3.8 1.2 4.6l37.6 19.6c1.6.8 3.6.1 4.5-1.7l12.1-23.2c1-1.6.4-3.6-1.1-4.5zm-13.3 24.4c-.8 1.5-2.5 2.1-3.8 1.4l-31.9-16.6c-1.3-.7-1.8-2.5-1-3.9l10.3-19.6c.8-1.5 2.5-2.1 3.8-1.4l31.9 16.6c1.3.7 1.8 2.5 1 3.9z" fill="#36c5f3"/><path d="m304.3 183h39.2v29.3h-39.2z" fill="#da4643" transform="matrix(.9208 -.39 .39 .9208 -51.4422 141.9682)"/><path d="m305.9 187.2h35.6v21.6h-35.6z" fill="#fff" transform="matrix(.9208 -.39 .39 .9208 -51.5948 141.9282)"/><path d="m332.9 179.2.7.3.3-.8.4-.2-.4 1.1 1.1.5-.4.2-.8-.4-.3.8-.4.2.4-1.1-1-.5z" fill="#fff"/><path d="m328.4 180.7.9 2.1 2.5-1.1-.9-2.1zm3.1.9-2.1.9-.5-1.3 2.1-.9z" fill="#fff"/><path d="m312.8 209.1h33.2v.7h-33.2z" fill="#fff" transform="matrix(.9208 -.39 .39 .9208 -55.5938 145.0567)"/><path d="m335.3 205.8h.8v1.7h-.8z" fill="#fff" transform="matrix(.9209 -.3897 .3897 .9209 -53.9887 147.154)"/><path d="m312.3 215.7h.5v1.6h-.5z" fill="#fff" transform="matrix(.9204 -.391 .391 .9204 -59.7798 139.445)"/><path d="m313.2 215.3h.5v1.6h-.5z" fill="#fff" transform="matrix(.9209 -.3898 .3898 .9209 -59.4369 139.2697)"/><path d="m332.4 194.1c2 4.7-.2 10.1-4.9 12-4.7 2-10.1-.2-12-4.9-2-4.7.2-10.1 4.9-12 4.6-2 10 .2 12 4.9z" fill="#da4643"/><path d="m319.3 193.4 4.5 10.7 5.2-8.5z" fill="#36c5f3"/><path d="m297.5 254c.7 2.8 1.2 2.8 1.2-.1v-37.7c0-2.9-2-4-4.4-2.4l-1 .6c-2.4 1.6-3.9 5.1-3.2 7.9z" fill="#f39225"/><path d="m283.1 275.4c0 1.4 1.2 2.6 2.6 2.6h34.7v-5.2h-34.7c-1.5.1-2.6 1.2-2.6 2.6z" fill="#7bcee8"/><path d="m393.6 272.9h-34.7v5.2h34.7c1.4 0 2.6-1.2 2.6-2.6 0-1.5-1.2-2.6-2.6-2.6z" fill="#7bcee8"/><path d="m341.9 259.1h28.3c2.9 0 6.6-1 7.4-2.9.4-.9.7-2 1.1-3.5.7-4.4 2.4-24.4 3.2-34 .2-2.9 1.4-8.1-.9-9.9-.9-.7-2.5-1.3-4.9-1.3h-43.1c-2.9 0-5.2-.7-5.2-1.6s0-1.6 0-1.6-.2-6.5-6.4-6.5h-13.5s-5.9.1-5.9 6.3v9.8l.1 38.4s.4 6.7 3.6 6.7h31.7v11h-15.1v2.8 5.2 2.8h34.7v-2.8-5.2-2.8h-15.1z" fill="#f39225"/><path d="m239.6 284.9h23.8v-29.1h-23.8zm.6-28.5h22.4v27.8h-22.4z" fill="#5d54c1"/><path d="m242.1 259.4h18.8v.7h-18.8z" fill="#5d54c1"/><path d="m242.1 280.8h18.8v.7h-18.8z" fill="#5d54c1"/><path d="m242.1 261.8h18.8v.7h-18.8z" fill="#5d54c1"/><path d="m242.1 264.2h18.8v.7h-18.8z" fill="#5d54c1"/><path d="m242.1 273.7h18.8v.7h-18.8z" fill="#5d54c1"/><path d="m242.1 276h18.8v.7h-18.8z" fill="#5d54c1"/><path d="m242.1 278.4h18.8v.7h-18.8z" fill="#5d54c1"/><path d="m242.1 266.5h18.8v.7h-18.8z" fill="#5d54c1"/><path d="m242.1 268.9h18.8v.7h-18.8z" fill="#5d54c1"/><path d="m242.1 271.3h18.8v.7h-18.8z" fill="#5d54c1"/><path d="m248.2 250.9v4.5h.7v-3.8h22.4v27.8h-7.6v.7h8.3v-29.2z" fill="#5d54c1"/><path d="m250.7 254.6h18.8v.7h-18.8z" fill="#5d54c1"/><path d="m263.7 276h5.7v.7h-5.7z" fill="#5d54c1"/><path d="m263.7 257h5.7v.7h-5.7z" fill="#5d54c1"/><path d="m263.7 259.3h5.7v.7h-5.7z" fill="#5d54c1"/><path d="m263.7 268.8h5.7v.7h-5.7z" fill="#5d54c1"/><path d="m263.7 271.2h5.7v.7h-5.7z" fill="#5d54c1"/><path d="m263.7 273.6h5.7v.7h-5.7z" fill="#5d54c1"/><path d="m263.7 261.7h5.7v.7h-5.7z" fill="#5d54c1"/><path d="m263.7 264.1h5.7v.7h-5.7z" fill="#5d54c1"/><path d="m263.7 266.5h5.7v.7h-5.7z" fill="#5d54c1"/><path d="m258.9 197.8h-10.6v-10.6h10.6zm-10-.6h9.4v-9.4h-9.4z" fill="#5d54c1"/><path d="m270.9 197.8h-10.6v-10.6h10.6zm-10-.6h9.4v-9.4h-9.4z" fill="#5d54c1"/><path d="m258.9 209.4h-10.6v-10.6h10.6zm-10-.6h9.4v-9.4h-9.4z" fill="#5d54c1"/><path d="m270.9 209.4h-10.6v-10.6h10.6zm-10-.6h9.4v-9.4h-9.4z" fill="#5d54c1"/><path d="m408.6 181.8c-5.8 0-10.5-4.7-10.5-10.5s4.7-10.5 10.5-10.5h.2v.2 10.1h10.2v.2c0 5.8-4.7 10.5-10.4 10.5zm-.2-20.5c-5.5.1-9.9 4.6-9.9 10.1 0 5.6 4.5 10.1 10.1 10.1 5.5 0 10-4.4 10.1-9.9h-10.3z" fill="#5d54c1"/><path d="m419.9 170.6h-10.7v-10.6h.2c5.8 0 10.5 4.7 10.5 10.5zm-10.2-.3h9.9c-.1-5.4-4.5-9.8-9.9-9.9z" fill="#5d54c1"/><path d="m410.4 217.6h16.3v4.5h.8v-4.5h16.4v9h.8v-9.9h-17.2v-1.8h-.8v1.8h-17.2v10h.9z" fill="#5d54c1"/><path d="m447.5 227.5h-.2-5.9-.2l-1.6 1.6v3h.4 8.8.4v-3zm.8 3.9h-7.9v-1.8l1.1-1.1h5.6l1.1 1.1z" fill="#5d54c1"/><path d="m412.9 227.5h-5.9-.2l-1.6 1.6v3h.4 8.8.4v-3l-1.6-1.6zm1 3.9h-7.9v-1.8l1.1-1.1h5.6l1.1 1.1z" fill="#5d54c1"/><path d="m430 227.5h-5.9-.2l-1.6 1.6v3h.4 8.8.4v-3l-1.6-1.6zm1.1 3.9h-7.9v-1.8l1.1-1.1h5.6l1.1 1.1z" fill="#5d54c1"/><path d="m423.1 214.3h8.3c2.1 0 3.8-1.7 3.8-3.8v-1.3c0-2.1-1.7-3.8-3.8-3.8h-8.3c-2.1 0-3.8 1.7-3.8 3.8v1.3c0 2.1 1.7 3.8 3.8 3.8zm-3-5c0-1.6 1.3-2.9 2.9-2.9h8.3c1.6 0 2.9 1.3 2.9 2.9v1.3c0 1.6-1.3 2.9-2.9 2.9h-8.3c-1.6 0-2.9-1.3-2.9-2.9z" fill="#5d54c1"/><path d="m422.9 209h8.6c.2 0 .4-.2.4-.4s-.2-.4-.4-.4h-8.6c-.2 0-.4.2-.4.4s.1.4.4.4z" fill="#5d54c1"/><path d="m422.9 211.2h8.6c.2 0 .4-.2.4-.4s-.2-.4-.4-.4h-8.6c-.2 0-.4.2-.4.4s.1.4.4.4z" fill="#5d54c1"/></svg>