<?xml version="1.0" encoding="utf-8"?>
<!-- Generator: Adobe Illustrator 24.3.0, SVG Export Plug-In . SVG Version: 6.00 Build 0)  -->
<svg version="1.1" id="Layer_1" xmlns="http://www.w3.org/2000/svg" xmlns:xlink="http://www.w3.org/1999/xlink" x="0px" y="0px"
	 viewBox="0 0 500 500" style="enable-background:new 0 0 500 500;" xml:space="preserve">
<style type="text/css">
	.st0{fill:#FFFFFF;}
	.st1{fill:#303C60;}
	.st2{fill:#FCAB75;}
	.st3{fill:#C68B14;}
	.st4{clip-path:url(#SVGID_2_);fill:#F4BD46;}
	.st5{clip-path:url(#SVGID_4_);fill:#C68B14;}
	.st6{fill:#F39225;}
	.st7{fill:#FFD0B0;}
	.st8{fill:#F4BD46;}
	.st9{fill:#9BD6E8;}
	.st10{fill:#7BCEE8;}
	.st11{fill:#D54A41;}
	.st12{fill:#F39892;}
	.st13{fill:#F2E5DE;}
	.st14{display:none;fill:#9EC8FF;}
	.st15{display:none;fill:#FFFFFF;}
	.st16{display:none;}
	.st17{display:inline;fill:#9CD499;}
	.st18{display:inline;fill:#9EC8FF;}
	.st19{display:inline;fill:#F37168;}
	.st20{fill:#9CD499;}
	.st21{fill:#74B570;}
	.st22{fill:none;stroke:#5D54C1;stroke-miterlimit:10;}
	.st23{fill:#5D54C1;}
	.st24{fill:#C87629;}
	.st25{fill:#DA4643;}
	.st26{fill:#36C5F3;}
	.st27{fill:#36495E;}
</style>
<g id="Background_Complete">
</g>
<g>
	<g>
		<path class="st0" d="M185.2,409.3C61.3,402.1-38,271.1,27.9,195.1c51.1-59,119.3,26.9,182.8-16.4c97.8-66.5,256.2-78.6,277.2,5.2
			c21,83.9-48.5,214.9-100.3,222.8C335.9,414.6,185.2,409.3,185.2,409.3z"/>
		<path class="st1" d="M201.2,231.8c1.3,31.5,1,48.5-10.5,61.6s-43.6,9.8-43.6,9.8s-3.2,46.3-48.1,48.3s-51.3-57.7-16.2-72.9
			c33.5-14.6,44.1-18.8,55.7-54.8c10.6-32.9,43.6-26.6,51.4-12.9C198,224.6,201.2,231.8,201.2,231.8z"/>
		<path class="st2" d="M186.5,392.3c0,0,21.2,4.1,22.3,3.9s24.2-10.5,26.6-9c2.4,1.5,16.4,7.4,19.4,8.7c3.1,1.3-1.7,1.7-4.1,1.7
			c-2.4,0-16.2-5.7-17.7-4.6s12,3.3,12,4.1s-36.3,9.2-38.4,9.2c-2.2,0-19-1.5-19-1.5L186.5,392.3z"/>
		<path class="st3" d="M168.9,276.6c11.4,2.2,18.1,14.3,20.3,24.9S168.9,276.6,168.9,276.6z"/>
		<g>
			<g>
				<defs>
					<path id="SVGID_1_" d="M185.2,409.3C61.3,402.1-38,271.1,27.9,195.1c51.1-59,119.3,26.9,182.8-16.4
						c97.8-66.5,256.2-78.6,277.2,5.2c21,83.9-48.5,214.9-100.3,222.8C335.9,414.6,185.2,409.3,185.2,409.3z"/>
				</defs>
				<clipPath id="SVGID_2_">
					<use xlink:href="#SVGID_1_"  style="overflow:visible;"/>
				</clipPath>
				<path class="st4" d="M149.8,268.5c0,0-22,14.7-33.7,22c-11.8,7.2,4.3,84.9,8.2,113.7c3.9,28.8,72.1,2.6,72.1,2.6
					s-4.6-24.2,1.3-63.2c4.2-27.9-11.2-45.4-20.1-57.6C155.2,255.3,149.8,268.5,149.8,268.5z"/>
			</g>
			<g>
				<defs>
					<path id="SVGID_3_" d="M185.2,409.3C61.3,402.1-38,271.1,27.9,195.1c51.1-59,119.3,26.9,182.8-16.4
						c97.8-66.5,256.2-78.6,277.2,5.2c21,83.9-48.5,214.9-100.3,222.8C335.9,414.6,185.2,409.3,185.2,409.3z"/>
				</defs>
				<clipPath id="SVGID_4_">
					<use xlink:href="#SVGID_3_"  style="overflow:visible;"/>
				</clipPath>
				<path class="st5" d="M128.2,290.7c25.2,30.8,33.8,36.6,27.5,57.3c-4.9,16.4-6.6,22.3-7.5,27.8c-1,5.6,46.8-3.6,46.8-3.6l-0.3,18
					c0,0-37.7,18-56,21.6s-29.8-0.7-29.8-0.7L128.2,290.7z"/>
			</g>
		</g>
		<path class="st6" d="M444.1,414.1H145.6c-2.2,0-3.9-1.7-3.9-3.9c0-2.2,1.7-3.9,3.9-3.9h298.5c2.2,0,3.9,1.7,3.9,3.9
			C448,412.3,446.2,414.1,444.1,414.1z"/>
		<path class="st7" d="M157.9,237.4L146.5,271c0,0,12.4,33.7,22.9,26.2c3.6-2.6-1.3-22.9-1.3-22.9l7.6-27.3L157.9,237.4z"/>
		<path class="st7" d="M121.6,289.4c-15.7,1.7-17,22.9-24.2,58.3c-7.2,35.4-5,58.7-1.6,63.2c8.2,10.8,100.3-26.9,111.7-26.5
			c7.9,0.2,1.3-13.1,1.3-13.1L121,384.8c0,0,12.4-41,12.4-61.9C133.4,301.9,127.5,288.8,121.6,289.4z"/>
		<path class="st7" d="M203.2,372c9.2-2.3,22.6-7.5,25.2-5.2c2.6,2.3,13.4,18.7,17,23.3c3.6,4.6-1.6,1-5.6-2.6
			c-3.9-3.6-7.2-5.6-7.2-5.6s-4.9,4.6-9.5,7.2s-6.2-2.6-14.1-3.9c-7.9-1.3-27.5,5.6-27.5,5.6L203.2,372z"/>
		<path class="st8" d="M123.4,286.8c-9.6,0.4-17,8.5-19.7,21c-2.6,12.4-10.3,52-10.3,52s-1.5,1.1,14.4,3.9s29-0.4,29-0.4
			s3.3-22.5,2.4-38c-0.9-15.5-4.4-30.1-10-35.2C123.6,285.1,123.4,286.8,123.4,286.8z"/>
		<path class="st2" d="M168.1,274.4l7.6-27.3l-17.9-9.6l-2.7,8.1c-0.6,27.1,6.4,36.2,11,39.5c1.5,1,2.7,0.2,3.8-1.5
			C169.2,278.7,168.1,274.4,168.1,274.4z"/>
		<path class="st7" d="M204.5,240.6c0,14.6-1.7,32.5-14.4,32.1c-19.7-0.7-32-15.9-32-30.5s10.3-26.5,23-26.5
			C193.7,215.7,204.5,226,204.5,240.6z"/>
		<path class="st9" d="M351.2,406.3h-73.7l30.3-66.7c0.9-1.9,2.8-3.2,5-3.2h66.9c1.5,0,2.6,1.6,1.9,3L351.2,406.3z"/>
		<path class="st9" d="M351,406.3H215.1c0-4.7,3.8-8.6,8.6-8.6H351V406.3z"/>
		<path class="st10" d="M379.7,336.4h-58.9c-2.1,0-4.1,1.2-5,3.2l-30.3,66.7h65.7l30.4-66.9C382.2,338,381.2,336.4,379.7,336.4z"/>
		<path class="st1" d="M182.9,210.6c13.9-1,22.2,11.7,24.6,22.9c1.7,8,0.9,9.6,0.9,9.6s-1.5,2.2-12.4,2.8
			c-10.9,0.7-12.2,0.4-12.2,0.4l-0.7-12.7l-3.3,12.2c0,0-1.7,2.4-8.5-0.9c-6.8-3.3-9.8-14.2-9.8-14.2s-1.5-7.2,3.7-12
			C170.3,214.1,182.9,210.6,182.9,210.6z"/>
		<path class="st11" d="M172.5,243.5c-1.3,8.8-8.4,15.1-15.8,14c-7.4-1.1-12.3-9.2-10.9-18c1.3-8.8,8.4-15.1,15.8-14
			C169,226.6,173.9,234.7,172.5,243.5z"/>
		<path class="st12" d="M167.2,243.3c-1.2,8.2-7,14.1-12.9,13.2s-9.7-8.3-8.5-16.4c1.2-8.2,7-14.1,12.9-13.2
			C164.7,227.7,168.4,235.1,167.2,243.3z"/>
		<path class="st13" d="M158.2,241.4c-0.7,4.5-3.1,7.9-5.5,7.5c-2.3-0.4-3.7-4.3-3-8.8s3.1-7.9,5.5-7.5
			C157.5,233,158.9,236.9,158.2,241.4z"/>
		<path class="st11" d="M157.8,225.7c6.4-23.8,28.4-20.3,34-17c4.7,2.8,5.4,6.7,5.4,6.7s-6.1-4.9-16.4-3.1
			c-9.8,1.7-15.6,7.5-16.4,13.9C164,229.5,157.8,225.7,157.8,225.7z"/>
		<g>
			<path class="st1" d="M59.8,302.4L59.8,302.4c-0.3,0-0.5-0.3-0.5-0.6c0.6-6,3.6-12.2,8.5-17.4c5.5-5.9,13.4-10.5,22.7-13.4
				c20.8-6.4,38.9-14.6,50.3-49.7c0.1-0.3,0.4-0.4,0.6-0.3c0.3,0.1,0.4,0.4,0.3,0.6c-5.2,16.1-12.4,27.9-21.8,35.9
				c-8.3,7.1-17.7,10.9-29.2,14.5c-9.2,2.8-16.9,7.4-22.3,13.1c-4.7,5-7.6,11-8.2,16.8C60.3,302.2,60.1,302.4,59.8,302.4z"/>
		</g>
		<g>
			<path class="st1" d="M69.2,278.1c-0.2,0-0.3-0.1-0.4-0.2c-0.2-0.2-0.1-0.5,0.1-0.7c0.1-0.1,9-6.9,21.8-9.7
				c24.7-5.4,41.2-20.3,47.9-42.9c0.1-0.3,0.4-0.4,0.6-0.3c0.3,0.1,0.4,0.4,0.3,0.6c-4.1,14-11.9,25-23,32.8
				c-7.2,5-15.8,8.6-25.6,10.8c-12.6,2.8-21.3,9.4-21.4,9.5C69.4,278.1,69.3,278.1,69.2,278.1z"/>
		</g>
		<g>
			<path class="st14" d="M102.8,168.6H32.5c-0.7,0-1-0.5-0.8-1.2L46,128.2c0.2-0.7,1-1.2,1.6-1.2h70.3c0.7,0,1,0.5,0.8,1.2
				l-14.3,39.2C104.2,168.1,103.5,168.6,102.8,168.6z"/>
			<path class="st15" d="M102,166.8H34.6c-0.6,0-0.9-0.5-0.7-1.1l13-35.7c0.2-0.6,0.9-1.1,1.5-1.1h67.3c0.6,0,0.9,0.5,0.7,1.1
				l-13,35.7C103.2,166.3,102.6,166.8,102,166.8z"/>
			<path class="st14" d="M100.7,164.4H37.6c-0.7,0-1-0.6-0.8-1.3L48,132.4c0.3-0.7,1-1.3,1.7-1.3h63.2c0.7,0,1,0.6,0.8,1.3
				l-11.2,30.8C102.2,163.9,101.4,164.4,100.7,164.4z"/>
			
				<ellipse transform="matrix(0.7678 -0.6407 0.6407 0.7678 -77.2312 82.5028)" class="st15" cx="75.2" cy="147.8" rx="13.8" ry="9.6"/>
			<path class="st14" d="M85.1,147.8c-2,5.5-8.1,9.9-13.6,9.9s-8.3-4.5-6.3-9.9c2-5.5,8.1-9.9,13.6-9.9
				C84.3,137.9,87.1,142.3,85.1,147.8z"/>
			<polygon class="st15" points="80.3,147.3 75.9,149.4 71.5,151.5 73,147.3 74.6,143.1 77.4,145.2 			"/>
			<g class="st16">
				<path class="st17" d="M-3.7,124.5h-5.5c-1.1,0-2.1-0.5-2.7-1.3c-0.6-0.9-0.7-2.1-0.3-3.2l2-5.5c0.8-2.1,3.1-3.8,5.3-3.8h5.5
					c1.1,0,2.1,0.5,2.7,1.3c0.6,0.9,0.7,2.1,0.3,3.2l-2,5.5C0.8,122.8-1.5,124.5-3.7,124.5z M-4.9,112.7c-1.3,0-2.8,1.1-3.2,2.4
					l-2,5.5c-0.2,0.5-0.2,1,0,1.3s0.6,0.4,1,0.4h5.5c1.3,0,2.8-1.1,3.2-2.4l2-5.5c0.2-0.5,0.2-1,0-1.3s-0.6-0.4-1-0.4H-4.9z"/>
			</g>
			<g class="st16">
				<path class="st17" d="M-12.2,148h-5.5c-1.1,0-2.1-0.5-2.7-1.3c-0.6-0.9-0.7-2.1-0.3-3.2l2-5.5c0.8-2.1,3.1-3.8,5.3-3.8H-8
					c1.1,0,2.1,0.5,2.7,1.3c0.6,0.9,0.7,2.1,0.3,3.2l-2,5.5C-7.8,146.4-10.1,148-12.2,148z M-13.5,136.3c-1.3,0-2.8,1.1-3.2,2.4
					l-2,5.5c-0.2,0.5-0.2,1,0,1.3s0.6,0.4,1,0.4h5.5c1.3,0,2.8-1.1,3.2-2.4l2-5.5c0.2-0.5,0.2-1,0-1.3s-0.6-0.4-1-0.4H-13.5z"/>
			</g>
			<g class="st16">
				<path class="st18" d="M-20.8,171.6h-5.5c-1.1,0-2.1-0.5-2.7-1.3c-0.6-0.9-0.7-2.1-0.3-3.2l2-5.5c0.8-2.1,3.1-3.8,5.3-3.8h5.5
					c1.1,0,2.1,0.5,2.7,1.3c0.6,0.9,0.7,2.1,0.3,3.2l-2,5.5C-16.3,169.9-18.6,171.6-20.8,171.6z M-22.1,159.8
					c-1.3,0-2.8,1.1-3.2,2.4l-2,5.5c-0.2,0.5-0.2,1,0,1.3s0.6,0.4,1,0.4h5.5c1.3,0,2.8-1.1,3.2-2.4l2-5.5c0.2-0.5,0.2-1,0-1.3
					s-0.6-0.4-1-0.4H-22.1z"/>
			</g>
			<path class="st14" d="M41.9,120H11.4c-0.6,0-0.9-0.5-0.7-1c0.2-0.6,0.8-1,1.4-1h30.5c0.6,0,0.9,0.5,0.7,1S42.5,120,41.9,120z"/>
			<path class="st14" d="M40.4,124.1H9.9c-0.6,0-0.9-0.5-0.7-1c0.2-0.6,0.8-1,1.4-1h30.5c0.6,0,0.9,0.5,0.7,1S41,124.1,40.4,124.1z"
				/>
			<path class="st14" d="M34,141.8H3.5c-0.6,0-0.9-0.5-0.7-1c0.2-0.6,0.8-1,1.4-1h30.5c0.6,0,0.9,0.5,0.7,1S34.5,141.8,34,141.8z"/>
			<path class="st14" d="M32.5,145.9H2c-0.6,0-0.9-0.5-0.7-1c0.2-0.6,0.8-1,1.4-1h30.5c0.6,0,0.9,0.5,0.7,1
				C33.7,145.5,33,145.9,32.5,145.9z"/>
			<path class="st14" d="M25.2,166H-5.3c-0.6,0-0.9-0.5-0.7-1c0.2-0.6,0.8-1,1.4-1h30.5c0.6,0,0.9,0.5,0.7,1
				C26.4,165.6,25.7,166,25.2,166z"/>
			<path class="st14" d="M23.6,170.2H-6.8c-0.6,0-0.9-0.5-0.7-1c0.2-0.6,0.8-1,1.4-1h30.5c0.6,0,0.9,0.5,0.7,1
				C24.9,169.7,24.2,170.2,23.6,170.2z"/>
			<g class="st16">
				<path class="st19" d="M-5,121.4c-0.1,0-0.2,0-0.3,0c-0.3-0.1-0.6-0.3-0.7-0.6l-2.1-5.2c-0.2-0.5,0-1.2,0.6-1.4
					c0.5-0.2,1.2,0,1.4,0.6l1.6,3.9l12.4-9.5c0.5-0.4,1.1-0.3,1.5,0.2c0.4,0.5,0.3,1.1-0.2,1.5l-13.5,10.4
					C-4.5,121.3-4.7,121.4-5,121.4z"/>
			</g>
			<g class="st16">
				<path class="st19" d="M-13.5,144.9c-0.1,0-0.2,0-0.3,0c-0.3-0.1-0.6-0.3-0.7-0.6l-2.1-5.2c-0.2-0.5,0-1.2,0.6-1.4
					c0.5-0.2,1.2,0,1.4,0.6l1.6,3.9l12.4-9.5c0.5-0.4,1.1-0.3,1.5,0.2s0.3,1.1-0.2,1.5l-13.5,10.4
					C-13.1,144.8-13.3,144.9-13.5,144.9z"/>
			</g>
			<polygon class="st14" points="188,92.6 70.9,92.6 74,84.3 191,84.3 			"/>
			<polygon class="st14" points="183.4,105.1 66.4,105.1 69.4,96.8 186.5,96.8 			"/>
			<path class="st14" d="M53.7,204.7h-86c-1.1,0-1.7-0.9-1.3-2s1.7-2,2.8-2h86c1.1,0,1.7,0.9,1.3,2S54.8,204.7,53.7,204.7z"/>
			<path class="st14" d="M50.4,213.8h-86c-1.1,0-1.7-0.9-1.3-2s1.7-2,2.8-2h86c1.1,0,1.7,0.9,1.3,2
				C52.8,212.9,51.5,213.8,50.4,213.8z"/>
		</g>
		<g>
			<path class="st20" d="M412,386.3c0-1.4,16.4-46.8,5.3-76c-7.8-20.5-9-45-9-45s-15.1,21.7-4.9,54.9c6.3,20.4,8.9,26.1,9.4,32.1
				s-2.5,36-2.5,36L412,386.3z"/>
			<g>
				<path class="st21" d="M410.4,388.7c-0.1,0-0.1,0-0.2,0c-0.2-0.1-0.3-0.3-0.3-0.5c0-0.3,3-30,2.5-35.9c-0.4-3.9-1.6-7.6-4.2-15.7
					c-1.4-4.2-3-9.3-5.2-16.2c-5.3-17.2-3.7-31.4-1.4-40.1c2.5-9.5,6.2-14.9,6.4-15.2c0.1-0.2,0.3-0.3,0.6-0.2
					c0.2,0.1,0.4,0.2,0.4,0.5c0,0.2,1.3,24.7,9,44.9c4.2,10.9,5,25.4,2.5,42.9c-2,14-5.6,25.9-7.1,31c-0.3,1.2-0.6,2.2-0.7,2.4
					c0,0.1,0,0.2-0.1,0.3l-1.6,1.9C410.7,388.6,410.5,388.7,410.4,388.7z M407.9,266.8c-1.2,2.1-3.7,6.8-5.4,13.6
					c-2.3,8.7-3.9,22.5,1.4,39.5c2.1,6.9,3.8,12.1,5.2,16.2c2.7,8.2,3.9,11.9,4.3,16c0.5,5.3-1.7,28.2-2.3,34.5l0.5-0.6
					c0.1-0.3,0.2-0.9,0.7-2.4c9.5-31.7,11.1-56.4,4.6-73.2C410.3,293.1,408.4,272.6,407.9,266.8z"/>
			</g>
			<path class="st20" d="M415.6,390.9c-2.5-50.5,9.6-78.1,34.1-99.9c24.6-21.8,25.7-27.6,25.7-27.6s-3.8,42.6-18,57.3
				c-14.2,14.7-34.9,25.7-37.9,33.3c-3,7.6-1.9,33.3-1.9,33.3l-1.9,4.6v-1H415.6z"/>
			<path class="st20" d="M412.6,395.3c-0.3-0.8,5.2-47.2,25.1-50c19.9-2.7,24.6,1.9,38.2-0.3c9.7-1.6,17.2-4.6,17.2-4.6
				s-5.2,13.2-22.9,18.6c-12.6,3.8-28.9-2.5-38.5-0.8c-9.6,1.6-14.5,22.1-14.5,22.1l-1.6,10.6L412.6,395.3z"/>
			<g>
				<path class="st21" d="M415.3,388.4c-0.3,0-0.5-0.2-0.5-0.5s-2.9-32.9,11-57.9c7.1-12.9,15-20.4,22.5-27.6
					c7-6.7,13.7-13.1,18.7-23.2c0.1-0.2,0.4-0.3,0.7-0.2c0.2,0.1,0.4,0.4,0.2,0.7c-5.1,10.2-11.8,16.6-18.9,23.4
					c-7.5,7.2-15.2,14.6-22.3,27.4c-13.7,24.7-10.9,57-10.9,57.3C415.8,388.1,415.6,388.4,415.3,388.4L415.3,388.4z"/>
			</g>
			<g>
				<path class="st21" d="M413.9,381.9h-0.1c-0.3-0.1-0.4-0.4-0.3-0.6c5.2-18,11.2-28.5,18.9-33.1c6.8-4.1,13.9-2.8,21.4-1.5
					c1.8,0.3,3.7,0.7,5.6,0.9c16.3,2.1,24.2-1.8,24.3-1.9c0.2-0.1,0.6,0,0.7,0.2s0,0.6-0.2,0.7c-0.3,0.2-8.2,4.1-24.9,2
					c-1.9-0.2-3.8-0.6-5.6-0.9c-7.3-1.3-14.2-2.5-20.7,1.4c-7.4,4.4-13.3,14.7-18.4,32.5C414.3,381.7,414.1,381.9,413.9,381.9z"/>
			</g>
			<g>
				<path class="st21" d="M440,311.8c-0.2,0-0.3-0.1-0.4-0.2c-0.2-0.2-0.1-0.5,0.1-0.7c0.1-0.1,9.8-7.5,23.3-10.1
					c0.3-0.1,0.5,0.1,0.6,0.4s-0.1,0.5-0.4,0.6c-13.2,2.5-22.8,9.8-22.9,9.9C440.2,311.8,440.1,311.8,440,311.8z"/>
			</g>
			<g>
				<path class="st21" d="M424.6,333.8c-0.1,0-0.2,0-0.3-0.1c-0.2-0.1-0.3-0.5-0.2-0.7c7.1-12,15.4-15,33.6-20.7
					c0.3-0.1,0.5,0.1,0.6,0.3c0.1,0.3-0.1,0.5-0.3,0.6c-17.9,5.6-26.1,8.6-33,20.2C424.9,333.7,424.7,333.8,424.6,333.8z"/>
			</g>
			<path class="st12" d="M420.2,407.7H408c-4.3,0-8-3.1-8.8-7.3l-3.9-20.6H433l-3.9,20.6C428.2,404.6,424.5,407.7,420.2,407.7z"/>
			<g>
				<path class="st11" d="M431.9,385.1h-35.5c-0.6,0-1-0.5-1-1c0-0.6,0.5-1,1-1h35.5c0.6,0,1,0.5,1,1S432.5,385.1,431.9,385.1z"/>
			</g>
		</g>
	</g>
	<g>
		<g>
			<path class="st22" d="M363,158.9c0,0.1,0,0.4,0,0.4c-0.6,0.4-1.7,1-2.7,1.5h-0.1c-0.1-0.1-0.1-0.6,0-0.7
				C361.4,159.6,362.3,159.2,363,158.9C362.9,158.9,362.9,158.9,363,158.9L363,158.9z"/>
			<path class="st22" d="M369.9,156.5c0,0.1,0,0.4-0.1,0.4c-0.7,0.3-1.9,0.8-2.9,1.1h-0.1c0-0.1,0-0.6,0.1-0.7
				C368.3,157,369.2,156.7,369.9,156.5C369.8,156.5,369.8,156.5,369.9,156.5L369.9,156.5z"/>
			<path class="st22" d="M377.1,155.3c0,0.1-0.1,0.4-0.2,0.4c-0.7,0.1-2,0.4-3,0.6h-0.1c0-0.2,0.1-0.6,0.2-0.6
				C375.4,155.4,376.4,155.3,377.1,155.3C377,155.2,377,155.2,377.1,155.3L377.1,155.3z"/>
			<path class="st22" d="M384.3,155.1c0,0.1-0.1,0.3-0.2,0.3c-0.7,0-2,0.1-3.1,0.1c0,0-0.1,0-0.1-0.1c0-0.2,0.2-0.6,0.3-0.6
				C382.7,155,383.7,155,384.3,155.1L384.3,155.1L384.3,155.1z"/>
			<path class="st22" d="M391.6,156.1c0,0.1-0.2,0.3-0.3,0.3c-0.7-0.1-2-0.2-3-0.3c0,0,0,0,0-0.1c0-0.2,0.3-0.6,0.4-0.6
				C390,155.8,391,155.9,391.6,156.1L391.6,156.1L391.6,156.1z"/>
			<path class="st22" d="M398.6,158.2c0,0.1-0.2,0.3-0.3,0.3c-0.7-0.2-2-0.5-3-0.8c0,0,0,0,0-0.1c0.1-0.1,0.4-0.5,0.4-0.5
				C397.1,157.6,398,158,398.6,158.2L398.6,158.2L398.6,158.2z"/>
			<path class="st22" d="M424.2,183c-0.1,0-0.4,0-0.4,0c-0.4-0.6-1-1.8-1.5-2.7v-0.1c0.1-0.1,0.6-0.1,0.7,0
				C423.6,181.5,424,182.4,424.2,183C424.3,183,424.3,183,424.2,183L424.2,183z"/>
			<path class="st22" d="M426.6,189.9c-0.1,0-0.4,0-0.4-0.1c-0.3-0.7-0.7-1.9-1.1-2.9v-0.1c0.1,0,0.6,0,0.7,0.1
				C426.2,188.3,426.5,189.3,426.6,189.9C426.7,189.9,426.7,189.9,426.6,189.9L426.6,189.9z"/>
			<path class="st22" d="M427.9,197.1c-0.1,0-0.4-0.1-0.4-0.2c-0.1-0.7-0.4-2-0.6-3v-0.1c0.2,0,0.6,0.1,0.6,0.2
				C427.7,195.5,427.8,196.5,427.9,197.1L427.9,197.1L427.9,197.1z"/>
			<path class="st22" d="M406.4,240.8c-0.1-0.1-0.1-0.4,0-0.4c0.6-0.4,1.6-1.3,2.4-1.9h0.1c0.1,0.1,0.2,0.6,0.1,0.6
				C407.8,239.9,406.9,240.5,406.4,240.8L406.4,240.8L406.4,240.8z"/>
			<path class="st22" d="M399.9,244.2c0-0.1,0-0.4,0-0.4c0.6-0.4,1.8-1,2.7-1.5h0.1c0.1,0.1,0.1,0.6,0,0.7
				C401.4,243.5,400.5,244,399.9,244.2C399.9,244.3,399.9,244.2,399.9,244.2L399.9,244.2z"/>
			<path class="st22" d="M393,246.5c0-0.1,0-0.4,0.1-0.4c0.7-0.3,1.9-0.7,2.9-1.1h0.1c0,0.1,0,0.6-0.1,0.7
				C394.6,246.1,393.6,246.4,393,246.5C393,246.6,393,246.6,393,246.5L393,246.5z"/>
			<path class="st22" d="M385.8,247.8c0-0.1,0.1-0.4,0.2-0.4c0.7-0.1,2-0.4,3-0.6h0.1c0,0.2-0.1,0.6-0.2,0.6
				C387.4,247.6,386.4,247.7,385.8,247.8L385.8,247.8L385.8,247.8z"/>
			<path class="st22" d="M378.5,247.8c0-0.1,0.1-0.3,0.2-0.3c0.7,0,2-0.1,3.1-0.1c0,0,0.1,0,0.1,0.1c0,0.2-0.2,0.6-0.3,0.6
				C380.1,248,379.1,247.9,378.5,247.8C378.5,247.9,378.5,247.9,378.5,247.8L378.5,247.8z"/>
			<path class="st22" d="M371.2,246.8c0-0.1,0.2-0.3,0.3-0.3c0.7,0.1,2,0.2,3,0.4c0,0,0,0,0,0.1c0,0.2-0.3,0.6-0.4,0.5
				C372.9,247.2,371.9,247,371.2,246.8L371.2,246.8L371.2,246.8z"/>
			<path class="st22" d="M364.3,244.6c0-0.1,0.2-0.3,0.3-0.3c0.7,0.2,2,0.5,2.9,0.8c0,0,0,0,0,0.1c-0.1,0.1-0.4,0.5-0.4,0.5
				C365.8,245.2,364.9,244.9,364.3,244.6C364.2,244.7,364.3,244.6,364.3,244.6L364.3,244.6z"/>
			<path class="st22" d="M357.7,241.3c0-0.1,0.3-0.2,0.3-0.2c0.6,0.3,1.9,0.8,2.8,1.3c0,0,0,0,0,0.1c-0.1,0.1-0.4,0.4-0.5,0.4
				C359.1,242.2,358.3,241.7,357.7,241.3C357.7,241.4,357.7,241.4,357.7,241.3L357.7,241.3z"/>
			<path class="st22" d="M351.8,237.1c0.1-0.1,0.3-0.2,0.4-0.1c0.6,0.4,1.7,1.1,2.5,1.7c0,0,0,0,0,0.1c-0.1,0.1-0.5,0.4-0.6,0.3
				C353,238.2,352.2,237.5,351.8,237.1C351.7,237.1,351.7,237.1,351.8,237.1L351.8,237.1z"/>
			<path class="st22" d="M346.6,232c0.1-0.1,0.3-0.1,0.4-0.1c0.5,0.5,1.5,1.4,2.2,2.1c0,0,0,0,0,0.1c-0.1,0.1-0.6,0.3-0.6,0.2
				C347.6,233.2,347,232.5,346.6,232C346.5,232,346.5,232,346.6,232L346.6,232z"/>
			<path class="st22" d="M342.2,226.1c0.1-0.1,0.4-0.1,0.4,0c0.4,0.6,1.3,1.6,1.9,2.4v0.1c-0.1,0.1-0.6,0.2-0.6,0.1
				C343.1,227.5,342.5,226.7,342.2,226.1L342.2,226.1L342.2,226.1z"/>
			<path class="st22" d="M338.8,219.6c0.1,0,0.4,0,0.4,0c0.4,0.6,1,1.8,1.5,2.7v0.1c-0.1,0.1-0.6,0.1-0.7,0
				C339.5,221.1,339,220.2,338.8,219.6L338.8,219.6L338.8,219.6z"/>
			<path class="st22" d="M336.5,212.7c0.1,0,0.4,0,0.4,0.1c0.2,0.7,0.7,1.9,1.1,2.9v0.1c-0.2,0-0.6,0-0.7-0.1
				C336.9,214.3,336.6,213.3,336.5,212.7L336.5,212.7L336.5,212.7z"/>
			<path class="st22" d="M335.3,205.5c0.1,0,0.4,0.1,0.4,0.2c0.1,0.7,0.4,2,0.6,3v0.1c-0.2,0-0.6-0.1-0.6-0.2
				C335.5,207.1,335.3,206.1,335.3,205.5L335.3,205.5L335.3,205.5z"/>
			<path class="st22" d="M335.3,198.2c0.1,0,0.3,0.1,0.3,0.2c0,0.7,0.1,2,0.1,3.1c0,0,0,0.1-0.1,0.1c-0.2,0-0.6-0.2-0.6-0.3
				C335.2,199.8,335.2,198.8,335.3,198.2C335.2,198.2,335.2,198.2,335.3,198.2L335.3,198.2z"/>
			<path class="st22" d="M336.4,190.9c0.1,0,0.3,0.2,0.3,0.3c-0.1,0.7-0.2,2-0.4,3c0,0,0,0-0.1,0c-0.2,0-0.6-0.3-0.5-0.4
				C336,192.5,336.2,191.6,336.4,190.9C336.3,190.9,336.3,190.9,336.4,190.9L336.4,190.9z"/>
			<path class="st22" d="M338.6,184c0.1,0,0.3,0.2,0.3,0.3c-0.2,0.7-0.5,2-0.8,2.9c0,0,0,0-0.1,0c-0.1-0.1-0.5-0.4-0.5-0.5
				C338,185.5,338.3,184.6,338.6,184C338.5,183.9,338.5,184,338.6,184L338.6,184z"/>
			<path class="st22" d="M357.2,162c0.1,0.1,0.1,0.4,0,0.4c-0.6,0.4-1.6,1.3-2.4,1.9h-0.1c-0.1-0.1-0.2-0.6-0.1-0.6
				C355.8,162.9,356.6,162.3,357.2,162C357.1,161.9,357.1,161.9,357.2,162L357.2,162z"/>
		</g>
		<path class="st22" d="M276.1,173.9c0.1,0.1,0.1,0.5,0,0.5c-0.8,0.5-2.3,1.3-3.4,2h-0.1c-0.1-0.2-0.1-0.8,0-0.9
			C274.2,174.7,275.3,174.2,276.1,173.9C276.1,173.8,276.1,173.8,276.1,173.9L276.1,173.9z"/>
		<path class="st22" d="M285,170.8c0,0.1,0,0.5-0.1,0.5c-0.9,0.3-2.4,1-3.7,1.4h-0.1c-0.1-0.2,0-0.8,0.1-0.8
			C283,171.3,284.2,171,285,170.8C285,170.7,285,170.7,285,170.8L285,170.8z"/>
		<path class="st22" d="M294.3,169.2c0,0.1-0.1,0.5-0.2,0.5c-0.9,0.2-2.6,0.6-3.9,0.8c0,0-0.1,0-0.1-0.1c0-0.2,0.1-0.8,0.2-0.8
			C292.2,169.4,293.4,169.2,294.3,169.2C294.3,169.1,294.3,169.1,294.3,169.2L294.3,169.2z"/>
		<path class="st22" d="M303.7,169c0,0.1-0.2,0.4-0.3,0.4c-0.9,0-2.6,0.2-3.9,0.2c0,0-0.1,0-0.1-0.1c0-0.2,0.2-0.8,0.4-0.8
			C301.5,168.8,302.8,168.9,303.7,169C303.7,168.9,303.7,168.9,303.7,169L303.7,169z"/>
		<path class="st22" d="M338.2,182.5c-0.1,0.1-0.4,0.3-0.5,0.2c-0.8-0.5-2.2-1.4-3.3-2.2v-0.1c0.1-0.2,0.7-0.5,0.7-0.4
			C336.6,181.2,337.6,182,338.2,182.5C338.3,182.5,338.2,182.5,338.2,182.5L338.2,182.5z"/>
		<path class="st22" d="M345,189.1c-0.1,0.1-0.4,0.2-0.5,0.1c-0.7-0.6-2-1.7-2.9-2.7v-0.1c0.1-0.1,0.7-0.4,0.8-0.3
			C343.6,187.5,344.5,188.4,345,189.1C345,189,345,189,345,189.1L345,189.1z"/>
		<path class="st22" d="M350.6,196.6c-0.1,0.1-0.5,0.1-0.5,0c-0.6-0.7-1.7-2-2.5-3.1v-0.1c0.2-0.1,0.8-0.3,0.8-0.2
			C349.5,194.8,350.2,195.9,350.6,196.6C350.7,196.5,350.7,196.5,350.6,196.6L350.6,196.6z"/>
		<path class="st22" d="M355.1,204.9c-0.1,0.1-0.5,0.1-0.5,0c-0.5-0.8-1.3-2.3-1.9-3.4v-0.1c0.2-0.1,0.8-0.1,0.9,0
			C354.2,202.9,354.8,204.1,355.1,204.9L355.1,204.9L355.1,204.9z"/>
		<path class="st22" d="M358.1,213.8c-0.1,0-0.5,0-0.5-0.1c-0.3-0.9-1-2.4-1.4-3.7v-0.1c0.2-0.1,0.8,0,0.8,0.1
			C357.6,211.7,358,213,358.1,213.8C358.2,213.8,358.2,213.8,358.1,213.8L358.1,213.8z"/>
		<path class="st22" d="M359.7,223.1c-0.1,0-0.5-0.1-0.5-0.2c-0.2-0.9-0.6-2.6-0.8-3.9c0,0,0-0.1,0.1-0.1c0.2,0,0.8,0.1,0.8,0.2
			C359.5,221,359.7,222.2,359.7,223.1C359.8,223.1,359.8,223.1,359.7,223.1L359.7,223.1z"/>
		<path class="st22" d="M359.9,232.5c-0.1,0-0.4-0.2-0.4-0.3c0-0.9-0.2-2.6-0.2-3.9c0,0,0-0.1,0.1-0.1c0.2,0,0.8,0.2,0.8,0.4
			C360,230.3,360,231.6,359.9,232.5L359.9,232.5L359.9,232.5z"/>
		<path class="st22" d="M358.5,241.8c-0.1,0-0.4-0.2-0.4-0.3c0.1-0.9,0.2-2.6,0.4-3.9c0,0,0-0.1,0.1-0.1c0.2,0,0.7,0.4,0.7,0.5
			C359,239.7,358.8,241,358.5,241.8C358.6,241.8,358.6,241.8,358.5,241.8L358.5,241.8z"/>
		<path class="st22" d="M355.8,250.8c-0.1,0-0.4-0.3-0.3-0.4c0.2-0.9,0.7-2.5,1.1-3.8c0,0,0-0.1,0.1,0c0.2,0.1,0.7,0.5,0.6,0.6
			C356.5,248.8,356.1,250.1,355.8,250.8L355.8,250.8L355.8,250.8z"/>
		<path class="st22" d="M351.6,259.3c-0.1-0.1-0.3-0.4-0.3-0.4c0.4-0.8,1.1-2.4,1.6-3.6h0.1c0.2,0.1,0.6,0.6,0.5,0.7
			c-0.9,1.6-1.5,2.7-1.9,3.4C351.7,259.3,351.7,259.3,351.6,259.3L351.6,259.3z"/>
		<path class="st22" d="M346.2,266.9c-0.1-0.1-0.3-0.4-0.2-0.5c0.5-0.8,1.4-2.2,2.2-3.3h0.1c0.2,0.1,0.5,0.7,0.4,0.7
			C347.5,265.3,346.7,266.3,346.2,266.9C346.2,267,346.2,267,346.2,266.9L346.2,266.9z"/>
		<path class="st22" d="M339.6,273.7c-0.1-0.1-0.2-0.4-0.1-0.5c0.6-0.7,1.7-2,2.7-2.9h0.1c0.1,0.1,0.4,0.7,0.3,0.8
			C341.2,272.3,340.3,273.2,339.6,273.7C339.7,273.7,339.6,273.7,339.6,273.7L339.6,273.7z"/>
		<path class="st22" d="M332.1,279.3c-0.1-0.1-0.1-0.5,0-0.5c0.7-0.6,2-1.7,3.1-2.5h0.1c0.1,0.2,0.3,0.8,0.2,0.8
			C333.9,278.2,332.8,278.9,332.1,279.3C332.1,279.4,332.1,279.4,332.1,279.3L332.1,279.3z"/>
		<path class="st22" d="M323.7,283.7c-0.1-0.1-0.1-0.5,0-0.5c0.8-0.5,2.3-1.3,3.4-1.9h0.1c0.1,0.2,0.1,0.8,0,0.9
			C325.7,282.9,324.5,283.4,323.7,283.7C323.8,283.8,323.8,283.8,323.7,283.7L323.7,283.7z"/>
		<path class="st22" d="M314.8,286.7c0-0.1,0-0.5,0.1-0.5c0.9-0.3,2.4-1,3.7-1.4h0.1c0.1,0.2,0,0.8-0.1,0.8
			C316.9,286.2,315.6,286.6,314.8,286.7C314.8,286.8,314.8,286.8,314.8,286.7L314.8,286.7z"/>
		<path class="st22" d="M305.5,288.3c0-0.1,0.1-0.5,0.2-0.5c0.9-0.2,2.6-0.6,3.9-0.8c0,0,0.1,0,0.1,0.1c0,0.2-0.1,0.8-0.2,0.8
			C307.6,288.1,306.3,288.3,305.5,288.3C305.5,288.4,305.5,288.4,305.5,288.3L305.5,288.3z"/>
		<path class="st22" d="M296.1,288.4c0-0.1,0.2-0.4,0.3-0.4c0.9,0,2.6-0.2,3.9-0.2c0,0,0.1,0,0.1,0.1c0,0.2-0.2,0.8-0.4,0.8
			C298.2,288.5,296.9,288.5,296.1,288.4C296.1,288.5,296.1,288.5,296.1,288.4L296.1,288.4z"/>
		<path class="st22" d="M286.8,287c0-0.1,0.2-0.4,0.3-0.4c0.9,0.1,2.6,0.3,3.9,0.5c0,0,0.1,0,0.1,0.1c0,0.2-0.4,0.7-0.5,0.7
			C288.9,287.5,287.6,287.3,286.8,287C286.8,287.1,286.8,287.1,286.8,287L286.8,287z"/>
		<path class="st22" d="M277.8,284.2c0-0.1,0.3-0.4,0.4-0.3c0.9,0.2,2.5,0.7,3.8,1.1c0,0,0.1,0,0,0.1c-0.1,0.2-0.5,0.7-0.6,0.6
			C279.8,285,278.6,284.6,277.8,284.2C277.8,284.3,277.8,284.3,277.8,284.2L277.8,284.2z"/>
		<path class="st22" d="M242.1,243.1c0.1,0,0.5,0,0.5,0.1c0.3,0.9,0.9,2.4,1.4,3.7v0.1c-0.2,0.1-0.8,0-0.8-0.1
			C242.6,245.2,242.2,243.9,242.1,243.1C242,243.1,242,243.1,242.1,243.1L242.1,243.1z"/>
		<path class="st22" d="M240.5,233.8c0.1,0,0.5,0.1,0.5,0.2c0.2,0.9,0.5,2.6,0.8,3.9c0,0,0,0.1-0.1,0.1c-0.2,0-0.8-0.1-0.8-0.2
			C240.7,235.9,240.5,234.7,240.5,233.8C240.4,233.8,240.5,233.8,240.5,233.8L240.5,233.8z"/>
		<path class="st22" d="M240.5,224.4c0.1,0,0.4,0.2,0.4,0.3c0,0.9,0.1,2.6,0.1,3.9c0,0,0,0.1-0.1,0.1c-0.2,0-0.8-0.2-0.8-0.4
			C240.3,226.5,240.4,225.2,240.5,224.4C240.4,224.4,240.4,224.4,240.5,224.4L240.5,224.4z"/>
		<path class="st22" d="M241.9,215.1c0.1,0,0.4,0.2,0.4,0.3c-0.1,0.9-0.3,2.6-0.5,3.9c0,0,0,0.1-0.1,0.1c-0.2,0-0.7-0.4-0.7-0.5
			C241.4,217.2,241.6,215.9,241.9,215.1C241.8,215.1,241.8,215.1,241.9,215.1L241.9,215.1z"/>
		<path class="st22" d="M244.7,206.1c0.1,0,0.4,0.3,0.3,0.4c-0.2,0.9-0.7,2.5-1.1,3.8c0,0,0,0.1-0.1,0c-0.2-0.1-0.7-0.5-0.6-0.6
			C243.9,208.1,244.4,206.9,244.7,206.1C244.6,206.1,244.7,206.1,244.7,206.1L244.7,206.1z"/>
		<path class="st22" d="M252.4,193.8C252.4,193.9,252.4,193.9,252.4,193.8 M254.4,190.1L254.4,190.1"/>
		<path class="st22" d="M268.7,177.8c0.1,0.1,0.1,0.5,0,0.5c-0.7,0.6-2,1.6-3.1,2.4h-0.1c-0.1-0.2-0.3-0.8-0.2-0.8
			C266.9,178.9,267.9,178.2,268.7,177.8C268.6,177.7,268.6,177.8,268.7,177.8L268.7,177.8z"/>
	</g>
	<g>
		<g>
			<g>
				<g>
					<path class="st23" d="M347,156.6v31.8h-32.8v-31.8H347 M316,181.8h0.7h27.1h0.7v-0.7v-22v-0.7h-0.7h-27.1H316v0.7v22V181.8
						 M347.7,156h-34.1v33.2h34.1V156L347.7,156z M316.7,181.2v-22h27.1v22H316.7L316.7,181.2z"/>
					<path class="st23" d="M323.5,163.8c1.1,0,2,0.9,2,2s-0.9,2-2,2s-2-0.9-2-2S322.4,163.8,323.5,163.8 M323.5,163.1
						c-1.5,0-2.6,1.2-2.6,2.6c0,1.5,1.2,2.6,2.6,2.6c1.5,0,2.6-1.2,2.6-2.6S325,163.1,323.5,163.1L323.5,163.1z"/>
					<path class="st23" d="M336.3,166.5l5.1,9.4H321l2.7-4.1l2.1,1.3l0.6,0.4l0.4-0.5l2.7-3.9l3.1,2.1l0.6,0.4l0.4-0.6L336.3,166.5
						 M336.4,165.2l-3.5,5.4l-3.7-2.5l-3,4.5l-2.6-1.7l-3.5,5.4v0.3h22.6L336.4,165.2L336.4,165.2z"/>
				</g>
			</g>
		</g>
		<g>
			<path class="st24" d="M297.7,254.7c0,0,0.5,2.6,3.3,3.7c2.8,1.2,6.6,0.7,6.6,0.7l-3.3-46.8l-9.1,1L297.7,254.7z"/>
			<g>
				<path class="st0" d="M381.2,197.2l-31.9-16.6c-1.3-0.7-3-0.1-3.8,1.4l-10.3,19.6c-0.8,1.5-0.3,3.2,1,3.9l31.9,16.6
					c1.3,0.7,3,0.1,3.8-1.4l10.3-19.6C383,199.6,382.6,197.9,381.2,197.2z"/>
				<path class="st25" d="M375.7,204.9c-1.3,2.6-4.5,3.6-7.1,2.2c-2.6-1.3-3.6-4.5-2.2-7.1c1.3-2.6,4.5-3.6,7.1-2.2
					C376,199.1,377,202.3,375.7,204.9z"/>
				<g>
					<polygon class="st26" points="347.9,192.9 348.1,195.5 349.9,196.8 349.8,188.4 346.6,191.1 346.5,192.8 					"/>
					<polygon class="st27" points="349.9,196.8 348.1,195.5 347.9,192.9 346.5,192.8 346.6,191.1 334.1,201.8 334.5,206 350.3,214 
											"/>
				</g>
				<g>
					<polygon class="st26" points="356.5,202.2 356.9,203.5 357.9,204 358.8,204.9 358.7,198.1 354.5,200.2 355.3,201.9 					"/>
					<polygon class="st27" points="358.8,204.9 357.9,204 356.9,203.5 356.5,202.2 355.3,201.9 354.5,200.2 338.3,208.2 
						343.4,210.9 359.1,218.9 					"/>
				</g>
				<path class="st26" d="M385.3,196.4l-37.6-19.6c-1.6-0.8-3.6-0.1-4.5,1.7L331,201.6c-0.9,1.7-0.4,3.8,1.2,4.6l37.6,19.6
					c1.6,0.8,3.6,0.1,4.5-1.7l12.1-23.2C387.4,199.3,386.8,197.3,385.3,196.4z M372,220.8c-0.8,1.5-2.5,2.1-3.8,1.4l-31.9-16.6
					c-1.3-0.7-1.8-2.5-1-3.9l10.3-19.6c0.8-1.5,2.5-2.1,3.8-1.4l31.9,16.6c1.3,0.7,1.8,2.5,1,3.9L372,220.8z"/>
			</g>
			<g>
				
					<rect x="304.3" y="183" transform="matrix(0.9208 -0.39 0.39 0.9208 -51.4422 141.9682)" class="st25" width="39.2" height="29.3"/>
				
					<rect x="305.9" y="187.2" transform="matrix(0.9208 -0.39 0.39 0.9208 -51.5948 141.9282)" class="st0" width="35.6" height="21.6"/>
				<g>
					<path class="st0" d="M332.9,179.2l0.7,0.3l0.3-0.8l0.4-0.2l-0.4,1.1l1.1,0.5l-0.4,0.2l-0.8-0.4l-0.3,0.8l-0.4,0.2l0.4-1.1
						l-1-0.5L332.9,179.2z"/>
				</g>
				<path class="st0" d="M328.4,180.7l0.9,2.1l2.5-1.1l-0.9-2.1L328.4,180.7z M331.5,181.6l-2.1,0.9l-0.5-1.3l2.1-0.9L331.5,181.6z"
					/>
				
					<rect x="312.8" y="209.1" transform="matrix(0.9208 -0.39 0.39 0.9208 -55.5938 145.0567)" class="st0" width="33.2" height="0.7"/>
				
					<rect x="335.3" y="205.8" transform="matrix(0.9209 -0.3897 0.3897 0.9209 -53.9887 147.154)" class="st0" width="0.8" height="1.7"/>
				
					<rect x="312.3" y="215.7" transform="matrix(0.9204 -0.391 0.391 0.9204 -59.7798 139.445)" class="st0" width="0.5" height="1.6"/>
				
					<rect x="313.2" y="215.3" transform="matrix(0.9209 -0.3898 0.3898 0.9209 -59.4369 139.2697)" class="st0" width="0.5" height="1.6"/>
				<g>
					<path class="st25" d="M332.4,194.1c2,4.7-0.2,10.1-4.9,12c-4.7,2-10.1-0.2-12-4.9c-2-4.7,0.2-10.1,4.9-12
						C325,187.2,330.4,189.4,332.4,194.1z"/>
					<polygon class="st26" points="319.3,193.4 323.8,204.1 329,195.6 					"/>
				</g>
			</g>
			<g>
				<path class="st6" d="M297.5,254c0.7,2.8,1.2,2.8,1.2-0.1v-37.7c0-2.9-2-4-4.4-2.4l-1,0.6c-2.4,1.6-3.9,5.1-3.2,7.9L297.5,254z"
					/>
				<path class="st10" d="M283.1,275.4c0,1.4,1.2,2.6,2.6,2.6h34.7v-5.2h-34.7C284.2,272.9,283.1,274,283.1,275.4z"/>
				<path class="st10" d="M393.6,272.9h-34.7v5.2h34.7c1.4,0,2.6-1.2,2.6-2.6C396.2,274,395,272.9,393.6,272.9z"/>
				<path class="st6" d="M341.9,259.1h28.3c2.9,0,6.6-1,7.4-2.9c0.4-0.9,0.7-2,1.1-3.5c0.7-4.4,2.4-24.4,3.2-34
					c0.2-2.9,1.4-8.1-0.9-9.9c-0.9-0.7-2.5-1.3-4.9-1.3H333c-2.9,0-5.2-0.7-5.2-1.6c0-0.9,0-1.6,0-1.6s-0.2-6.5-6.4-6.5h-13.5
					c0,0-5.9,0.1-5.9,6.3v9.8l0.1,38.4c0,0,0.4,6.7,3.6,6.7h31.7v11h-15.1v2.8v5.2v2.8H357V278v-5.2V270h-15.1V259.1z"/>
			</g>
		</g>
		<g>
			<path class="st23" d="M239.6,284.9h23.8v-29.1h-23.8L239.6,284.9L239.6,284.9z M240.2,256.4h22.4v27.8h-22.4L240.2,256.4
				L240.2,256.4z"/>
			<rect x="242.1" y="259.4" class="st23" width="18.8" height="0.7"/>
			<rect x="242.1" y="280.8" class="st23" width="18.8" height="0.7"/>
			<rect x="242.1" y="261.8" class="st23" width="18.8" height="0.7"/>
			<rect x="242.1" y="264.2" class="st23" width="18.8" height="0.7"/>
			<rect x="242.1" y="273.7" class="st23" width="18.8" height="0.7"/>
			<rect x="242.1" y="276" class="st23" width="18.8" height="0.7"/>
			<rect x="242.1" y="278.4" class="st23" width="18.8" height="0.7"/>
			<rect x="242.1" y="266.5" class="st23" width="18.8" height="0.7"/>
			<rect x="242.1" y="268.9" class="st23" width="18.8" height="0.7"/>
			<rect x="242.1" y="271.3" class="st23" width="18.8" height="0.7"/>
			<polygon class="st23" points="248.2,250.9 248.2,255.4 248.9,255.4 248.9,251.6 271.3,251.6 271.3,279.4 263.7,279.4 
				263.7,280.1 272,280.1 272,250.9 			"/>
			<rect x="250.7" y="254.6" class="st23" width="18.8" height="0.7"/>
			<rect x="263.7" y="276" class="st23" width="5.7" height="0.7"/>
			<rect x="263.7" y="257" class="st23" width="5.7" height="0.7"/>
			<rect x="263.7" y="259.3" class="st23" width="5.7" height="0.7"/>
			<rect x="263.7" y="268.8" class="st23" width="5.7" height="0.7"/>
			<rect x="263.7" y="271.2" class="st23" width="5.7" height="0.7"/>
			<rect x="263.7" y="273.6" class="st23" width="5.7" height="0.7"/>
			<rect x="263.7" y="261.7" class="st23" width="5.7" height="0.7"/>
			<rect x="263.7" y="264.1" class="st23" width="5.7" height="0.7"/>
			<rect x="263.7" y="266.5" class="st23" width="5.7" height="0.7"/>
		</g>
		<g>
			<path class="st23" d="M258.9,197.8h-10.6v-10.6h10.6V197.8z M248.9,197.2h9.4v-9.4h-9.4V197.2z"/>
			<path class="st23" d="M270.9,197.8h-10.6v-10.6h10.6V197.8z M260.9,197.2h9.4v-9.4h-9.4V197.2z"/>
			<path class="st23" d="M258.9,209.4h-10.6v-10.6h10.6V209.4z M248.9,208.8h9.4v-9.4h-9.4V208.8z"/>
			<path class="st23" d="M270.9,209.4h-10.6v-10.6h10.6V209.4z M260.9,208.8h9.4v-9.4h-9.4V208.8z"/>
		</g>
		<g>
			<path class="st23" d="M408.6,181.8c-5.8,0-10.5-4.7-10.5-10.5s4.7-10.5,10.5-10.5h0.2v0.2v10.1H419v0.2
				C419,177.1,414.3,181.8,408.6,181.8z M408.4,161.3c-5.5,0.1-9.9,4.6-9.9,10.1c0,5.6,4.5,10.1,10.1,10.1c5.5,0,10-4.4,10.1-9.9
				h-10.3L408.4,161.3L408.4,161.3z"/>
			<path class="st23" d="M419.9,170.6h-10.7V160h0.2c5.8,0,10.5,4.7,10.5,10.5V170.6z M409.7,170.3h9.9c-0.1-5.4-4.5-9.8-9.9-9.9
				V170.3z"/>
		</g>
	</g>
	<g>
		<polygon class="st23" points="410.4,217.6 426.7,217.6 426.7,222.1 427.5,222.1 427.5,217.6 443.9,217.6 443.9,226.6 444.7,226.6 
			444.7,216.7 427.5,216.7 427.5,214.9 426.7,214.9 426.7,216.7 409.5,216.7 409.5,226.7 410.4,226.7 		"/>
		<path class="st23" d="M447.5,227.5h-0.2h-5.9h-0.2l-1.6,1.6v3h0.4h8.8h0.4v-3L447.5,227.5z M448.3,231.4h-7.9v-1.8l1.1-1.1h5.6
			l1.1,1.1L448.3,231.4L448.3,231.4z"/>
		<path class="st23" d="M412.9,227.5H407h-0.2l-1.6,1.6v3h0.4h8.8h0.4v-3l-1.6-1.6H412.9z M413.9,231.4H406v-1.8l1.1-1.1h5.6
			l1.1,1.1L413.9,231.4L413.9,231.4z"/>
		<path class="st23" d="M430,227.5h-5.9h-0.2l-1.6,1.6v3h0.4h8.8h0.4v-3l-1.6-1.6H430z M431.1,231.4h-7.9v-1.8l1.1-1.1h5.6l1.1,1.1
			L431.1,231.4L431.1,231.4z"/>
		<path class="st23" d="M423.1,214.3h8.3c2.1,0,3.8-1.7,3.8-3.8v-1.3c0-2.1-1.7-3.8-3.8-3.8h-8.3c-2.1,0-3.8,1.7-3.8,3.8v1.3
			C419.3,212.6,421,214.3,423.1,214.3z M420.1,209.3c0-1.6,1.3-2.9,2.9-2.9h8.3c1.6,0,2.9,1.3,2.9,2.9v1.3c0,1.6-1.3,2.9-2.9,2.9
			H423c-1.6,0-2.9-1.3-2.9-2.9V209.3z"/>
		<path class="st23" d="M422.9,209h8.6c0.2,0,0.4-0.2,0.4-0.4s-0.2-0.4-0.4-0.4h-8.6c-0.2,0-0.4,0.2-0.4,0.4S422.6,209,422.9,209z"
			/>
		<path class="st23" d="M422.9,211.2h8.6c0.2,0,0.4-0.2,0.4-0.4s-0.2-0.4-0.4-0.4h-8.6c-0.2,0-0.4,0.2-0.4,0.4
			S422.6,211.2,422.9,211.2z"/>
	</g>
</g>
</svg>
