<?xml version="1.0" encoding="utf-8"?>
<!-- Generator: Adobe Illustrator 24.3.0, SVG Export Plug-In . SVG Version: 6.00 Build 0)  -->
<svg version="1.1" id="Layer_1" xmlns="http://www.w3.org/2000/svg" xmlns:xlink="http://www.w3.org/1999/xlink" x="0px" y="0px"
	 viewBox="0 0 500 500" style="enable-background:new 0 0 500 500;" xml:space="preserve">
<style type="text/css">
	.st0{display:none;fill:#9EC8FF;}
	.st1{display:none;fill:#FFFFFF;}
	.st2{display:none;}
	.st3{display:inline;fill:#9CD499;}
	.st4{display:inline;fill:#9EC8FF;}
	.st5{display:inline;fill:#F37168;}
	.st6{fill:#DCDCFF;}
	.st7{fill:#FFDB94;}
	.st8{fill:#F4BD46;}
	.st9{fill:#F39225;}
	.st10{fill:#2E5B9A;}
	.st11{fill:#FFD0B0;}
	.st12{fill:#FCAB75;}
	.st13{fill:#96CFE0;}
	.st14{fill:#75A1DE;}
	.st15{fill:#A86B48;}
	.st16{fill:#3E6BAB;}
	.st17{fill:#F0CEB4;}
	.st18{fill:#A8CEFF;}
	.st19{fill:#9CD499;}
	.st20{fill:#FFFFFF;}
	.st21{fill:#5D54C1;}
	.st22{fill:#E4E3FF;}
	.st23{fill:none;stroke:#5D54C1;stroke-miterlimit:10;}
</style>
<g id="Background_Complete">
</g>
<g>
	<g>
		<g>
			<path class="st0" d="M102.8,168.6H32.5c-0.7,0-1-0.5-0.8-1.2L46,128.2c0.2-0.7,1-1.2,1.6-1.2h70.3c0.7,0,1,0.5,0.8,1.2
				l-14.3,39.2C104.2,168.1,103.5,168.6,102.8,168.6z"/>
			<path class="st1" d="M102,166.8H34.6c-0.6,0-0.9-0.5-0.7-1.1l13-35.7c0.2-0.6,0.9-1.1,1.5-1.1h67.3c0.6,0,0.9,0.5,0.7,1.1
				l-13,35.7C103.2,166.3,102.6,166.8,102,166.8z"/>
			<path class="st0" d="M100.7,164.4H37.6c-0.7,0-1-0.6-0.8-1.3L48,132.4c0.3-0.7,1-1.3,1.7-1.3h63.2c0.7,0,1,0.6,0.8,1.3
				l-11.2,30.8C102.2,163.9,101.4,164.4,100.7,164.4z"/>
			
				<ellipse transform="matrix(0.7678 -0.6407 0.6407 0.7678 -77.2296 82.4986)" class="st1" cx="75.2" cy="147.8" rx="13.8" ry="9.6"/>
			<path class="st0" d="M85.1,147.8c-2,5.5-8.1,9.9-13.6,9.9c-5.5,0-8.3-4.5-6.3-9.9c2-5.5,8.1-9.9,13.6-9.9
				C84.3,137.9,87.1,142.3,85.1,147.8z"/>
			<polygon class="st1" points="80.3,147.3 75.9,149.4 71.5,151.5 73,147.3 74.6,143.1 77.4,145.2 			"/>
			<g class="st2">
				<path class="st3" d="M-3.7,124.5h-5.5c-1.1,0-2.1-0.5-2.7-1.3c-0.6-0.9-0.7-2.1-0.3-3.2l2-5.5c0.8-2.1,3.1-3.8,5.3-3.8h5.5
					c1.1,0,2.1,0.5,2.7,1.3c0.6,0.9,0.7,2.1,0.3,3.2l-2,5.5C0.8,122.8-1.5,124.5-3.7,124.5z M-4.9,112.7c-1.3,0-2.8,1.1-3.2,2.4
					l-2,5.5c-0.2,0.5-0.2,1,0,1.3c0.2,0.3,0.6,0.4,1,0.4h5.5c1.3,0,2.8-1.1,3.2-2.4l2-5.5c0.2-0.5,0.2-1,0-1.3
					c-0.2-0.3-0.6-0.4-1-0.4H-4.9z"/>
			</g>
			<g class="st2">
				<path class="st3" d="M-12.2,148h-5.5c-1.1,0-2.1-0.5-2.7-1.3c-0.6-0.9-0.7-2.1-0.3-3.2l2-5.5c0.8-2.1,3.1-3.8,5.3-3.8H-8
					c1.1,0,2.1,0.5,2.7,1.3c0.6,0.9,0.7,2.1,0.3,3.2l-2,5.5C-7.8,146.4-10.1,148-12.2,148z M-13.5,136.3c-1.3,0-2.8,1.1-3.2,2.4
					l-2,5.5c-0.2,0.5-0.2,1,0,1.3c0.2,0.3,0.6,0.4,1,0.4h5.5c1.3,0,2.8-1.1,3.2-2.4l2-5.5c0.2-0.5,0.2-1,0-1.3
					c-0.2-0.3-0.6-0.4-1-0.4H-13.5z"/>
			</g>
			<g class="st2">
				<path class="st4" d="M-20.8,171.6h-5.5c-1.1,0-2.1-0.5-2.7-1.3c-0.6-0.9-0.7-2.1-0.3-3.2l2-5.5c0.8-2.1,3.1-3.8,5.3-3.8h5.5
					c1.1,0,2.1,0.5,2.7,1.3c0.6,0.9,0.7,2.1,0.3,3.2l-2,5.5C-16.3,169.9-18.6,171.6-20.8,171.6z M-22.1,159.8
					c-1.3,0-2.8,1.1-3.2,2.4l-2,5.5c-0.2,0.5-0.2,1,0,1.3c0.2,0.3,0.6,0.4,1,0.4h5.5c1.3,0,2.8-1.1,3.2-2.4l2-5.5
					c0.2-0.5,0.2-1,0-1.3c-0.2-0.3-0.6-0.4-1-0.4H-22.1z"/>
			</g>
			<path class="st0" d="M41.9,120H11.4c-0.6,0-0.9-0.5-0.7-1c0.2-0.6,0.8-1,1.4-1h30.5c0.6,0,0.9,0.5,0.7,1
				C43.1,119.5,42.5,120,41.9,120z"/>
			<path class="st0" d="M40.4,124.1H9.9c-0.6,0-0.9-0.5-0.7-1c0.2-0.6,0.8-1,1.4-1h30.5c0.6,0,0.9,0.5,0.7,1
				C41.6,123.6,41,124.1,40.4,124.1z"/>
			<path class="st0" d="M34,141.8H3.5c-0.6,0-0.9-0.5-0.7-1c0.2-0.6,0.8-1,1.4-1h30.5c0.6,0,0.9,0.5,0.7,1
				C35.2,141.3,34.5,141.8,34,141.8z"/>
			<path class="st0" d="M32.5,145.9H2c-0.6,0-0.9-0.5-0.7-1c0.2-0.6,0.8-1,1.4-1h30.5c0.6,0,0.9,0.5,0.7,1
				C33.7,145.5,33,145.9,32.5,145.9z"/>
			<path class="st0" d="M25.2,166H-5.3c-0.6,0-0.9-0.5-0.7-1c0.2-0.6,0.8-1,1.4-1h30.5c0.6,0,0.9,0.5,0.7,1
				C26.4,165.6,25.7,166,25.2,166z"/>
			<path class="st0" d="M23.6,170.2H-6.8c-0.6,0-0.9-0.5-0.7-1c0.2-0.6,0.8-1,1.4-1h30.5c0.6,0,0.9,0.5,0.7,1
				C24.9,169.7,24.2,170.2,23.6,170.2z"/>
			<g class="st2">
				<path class="st5" d="M-5,121.4c-0.1,0-0.2,0-0.3,0c-0.3-0.1-0.6-0.3-0.7-0.6l-2.1-5.2c-0.2-0.5,0-1.2,0.6-1.4
					c0.5-0.2,1.2,0,1.4,0.6l1.6,3.9l12.4-9.5c0.5-0.4,1.1-0.3,1.5,0.2c0.4,0.5,0.3,1.1-0.2,1.5l-13.5,10.4
					C-4.5,121.3-4.7,121.4-5,121.4z"/>
			</g>
			<g class="st2">
				<path class="st5" d="M-13.5,144.9c-0.1,0-0.2,0-0.3,0c-0.3-0.1-0.6-0.3-0.7-0.6l-2.1-5.2c-0.2-0.5,0-1.2,0.6-1.4
					c0.5-0.2,1.2,0,1.4,0.6l1.6,3.9l12.4-9.5c0.5-0.4,1.1-0.3,1.5,0.2c0.4,0.5,0.3,1.1-0.2,1.5l-13.5,10.4
					C-13.1,144.8-13.3,144.9-13.5,144.9z"/>
			</g>
			<polygon class="st0" points="188,92.6 70.9,92.6 74,84.3 191,84.3 			"/>
			<polygon class="st0" points="183.4,105.1 66.4,105.1 69.4,96.8 186.5,96.8 			"/>
			<path class="st0" d="M53.7,204.7h-86c-1.1,0-1.7-0.9-1.3-2c0.4-1.1,1.7-2,2.8-2h86c1.1,0,1.7,0.9,1.3,2
				C56.1,203.8,54.8,204.7,53.7,204.7z"/>
			<path class="st0" d="M50.4,213.8h-86c-1.1,0-1.7-0.9-1.3-2c0.4-1.1,1.7-2,2.8-2h86c1.1,0,1.7,0.9,1.3,2
				C52.8,212.9,51.5,213.8,50.4,213.8z"/>
		</g>
	</g>
</g>
<g>
	<path class="st6" d="M32.9,375.6c0,0-40.9-50.7-16.4-99c24.5-48.3,71.2-36.8,136.6-85.9c79.5-59.6,135.3-62.9,206.2-36.8
		c40.1,14.7,46.6,75.3,110.5,112.9c57.5,33.9,10.6,91.6-19.6,100.6c-30.3,9-50.7,9-50.7,9L32.9,375.6z"/>
	<path class="st7" d="M276.4,266.6c-10.2,20.7-23,77.4-26.5,80.5c-3.5,3.1-23.7,15.1-27.2,20.9c-3.5,5.8-1.9,3.9-0.4,4.3
		c1.6,0.4,89.2,0.8,89.2,0.8s-10.1-60.1-11.2-60.5C299.2,312.1,276.4,266.6,276.4,266.6z"/>
	<path class="st8" d="M261.9,372.8c16.1,0.1,33.1,0.2,42.4,0.2l-12.8-76.6c-6.8-13.2-15.1-29.8-15.1-29.8c-1.3,2.6-2.6,5.8-4,9.4
		c-1.3,57.5,7,73.6,0.7,83.9C268.3,367.9,263.9,371.4,261.9,372.8z"/>
	<path class="st9" d="M443.9,376.9H23c-1.8,0-3.2-1.5-3.2-3.2c0-1.8,1.5-3.2,3.2-3.2h421c1.8,0,3.2,1.5,3.2,3.2
		C447.2,375.4,445.7,376.9,443.9,376.9z"/>
	<path class="st7" d="M330.2,241.6c14.6,13.4,47,26.2,47,26.2s4.9,45.5,1.6,71.3c-3.4,25.8-1.5,31-1.5,31h-66.8
		c0,0-9-12.4-25.4-51.2c-10.5-24.6-8.6-52.3-8.6-52.3l40.7-18.3L330.2,241.6z"/>
	<path class="st8" d="M310.4,370h66.8c0,0-1.9-5.2,1.5-31c2.8-21.2-0.1-55.8-1.2-67.4l-6.1-2.6c-15.3,4.4-24.1,27.2-26.6,49.4
		c-1.7,14.9-26.4,29.5-42.5,37.6C307.6,366.1,310.4,370,310.4,370z"/>
	<path class="st10" d="M294,194.9c-8.1,17.9,1.6,34.6,1.3,33.9c-0.3-0.7,12.2-30.3,12.2-30.3L294,194.9z"/>
	<path class="st11" d="M324.5,208.1l10.2,37.3c0.3,1.1,0,2.2-0.6,3c-2.4,3-5.8,9-12.7,11c-1.3,0.4-3,0.5-4.3,0.5
		c-1.4,0-2.6-1-2.9-2.4l-6.8-35.4L324.5,208.1z"/>
	<path class="st12" d="M322.6,211.3l-3.7,1.5l-11.5,9.4l6.2,31.4C324,247.1,325.5,242.7,322.6,211.3z"/>
	<path class="st11" d="M324.2,224.7c-2.3,12.3-11.5,20.6-20.5,18.6c-9.1-2-13.4-10-12.3-25.9c0.8-12.5,7-26.1,16.1-24.1
		C316.5,195.3,326.4,212.4,324.2,224.7z"/>
	<path class="st7" d="M377.2,267.8c13.5,3.1,16,30.5,20.4,59.5c0.5,3.3,3.1,31.6,3.1,31.6s0.3,5.2-4.9,7.8
		c-4.4,2.2-6.2,3.9-31.8,4.1c-24.6,0.2-56.3-0.8-56.3-0.8s-0.3-9.1,2.2-13.6c3.8-6.7,42.7-16.4,46.3-16.9c0.5-7.2-3.6-33.4,2.1-51.2
		c3.9-12.2,8.1-18.6,13.3-20.3C373.3,267.3,375.2,267.3,377.2,267.8z"/>
	<path class="st8" d="M321.6,370.5c12.1,0.2,28.8,0.4,42.4,0.2c25.6-0.3,27.4-1.9,31.8-4.1c5.2-2.6,5.4-7,5.4-7s-2.6-30-3.1-33.4
		c-2.8-19.4-5.9-41.6-13.1-52.3c6.7,19.7,7.8,36.3,7.9,43.4c0.1,3.6-0.3,8.5-1.3,12c-1.2,3.8-4.1,6.2-8.8,4.9
		c-9.3-2.6-20.9,2.8-20.9,2.8s8.8-3.1,17.1-0.3c8.3,2.8,25.3,21.7,6.7,28.7C380,367.7,345.9,369.4,321.6,370.5z"/>
	<path class="st13" d="M312,357.2c0,0,3.4-5.9,10.5-5.9c7.1,0,6.6,11.6,5.5,15.3c-1,3.8-5.2,4-5.2,4l-15.2-0.7L312,357.2z"/>
	<path class="st14" d="M296.3,373.2h-95.1c-1.6,0-2.9-1.3-2.9-2.9v-0.2c0-1.6,1.3-2.9,2.9-2.9h95.1c1.6,0,2.9,1.3,2.9,2.9v0.2
		C299.2,371.9,297.9,373.2,296.3,373.2z"/>
	<path class="st11" d="M310.1,357.8c-14.8-5.3-18.7-3.3-22.1-4.3c-8.3-2.4-10.3-0.3-15.7,14.3c-1.1,2.9,2.1,3.1,5.2,3.1
		c3.1,0,6.9-6,8.1-6.7c1.2-0.7,4.5-1,4.5-1s-1,0-2.6,3.1s-3.4,4.3-1,4.3s2.8-4,7.2-3.1c4.5,0.9,2.8,3.1,14,2.9
		c11.2-0.2,19.7,0,19.5-6.7c-0.2-6.4,0.5-9.6-5.5-10.7C317,352.2,310.1,357.8,310.1,357.8z"/>
	<path class="st15" d="M310.3,357.8c9.9-1.1,7,11.2,6,12.3c-1,1,5.5,0.4,5.5,0.4s3.1-5,0.5-10.6c-2.6-5.7-7.8-5.9-7.8-5.9l-4.4,2.4
		L310.3,357.8z"/>
	<path class="st10" d="M320.6,356.8c-0.1,1.5-2.7,2.6-5.8,2.3c-3.1-0.3-5.5-1.7-5.3-3.2c0.1-1.5,2.7-2.6,5.8-2.3
		C318.4,353.8,320.8,355.2,320.6,356.8z"/>
	<path class="st16" d="M319.9,356c-0.1,1.4-2.4,2.3-5.2,2.1c-2.8-0.2-4.9-1.5-4.8-2.9c0.1-1.4,2.4-2.3,5.2-2.1
		C317.8,353.3,320,354.6,319.9,356z"/>
	<path class="st17" d="M318.1,355.4c-0.1,1-1.8,1.6-3.7,1.5c-2-0.2-3.5-1.1-3.4-2.1c0.1-1,1.8-1.6,3.7-1.5
		C316.7,353.5,318.2,354.4,318.1,355.4z"/>
	<g>
		<path class="st14" d="M197.5,354.3h-96.4c-5.1,0-9.4-3.7-10.3-8.7l-12.6-69.4c-1.2-6.5,3.8-12.6,10.3-12.6h96.4
			c5.1,0,9.4,3.7,10.3,8.7l12.6,69.4C209,348.3,204,354.3,197.5,354.3z"/>
		<path class="st18" d="M202,342L189.1,274c-0.9-4.9-5.4-8.5-10.5-8.5H80.7c-2.1,2.4-3.1,5.7-2.5,9.1l13,70.8
			c0.9,5.2,5.4,8.9,10.7,8.9h89.5C198.1,354.3,203.2,348.4,202,342z"/>
		<path class="st14" d="M178.7,363.6h-18.3c-3.3,0-5.9-2.9-5.9-6.5v-33.4c0-5.7-4.2-10.3-9.4-10.3h-9.6c-5.2,0-9.4,4.6-9.4,10.3
			v37.5c0,6.4,4.7,11.6,10.6,11.5l49.9-0.3C186.7,367.5,183.1,363.6,178.7,363.6z"/>
		<path class="st18" d="M126.9,324.4v36.9c0,6,4.7,10.9,10.5,11.3l48.7-0.3c0-0.8-3.8-2.3-8.6-2.3h-19.8c-3.5,0-6.4-2.9-6.4-6.4
			v-39.3c0-5.6-4.6-10.2-10.2-10.2h-4.2C131.5,314.2,126.9,318.8,126.9,324.4z"/>
	</g>
	<path class="st12" d="M228.9,359.3c7.4-4.1,16.4-2.7,19.6,1.4c3.3,4.1,3.8,6.8-3.5,6.8c-7.4,0-22.1,0.5-24.5,0.3
		C218,367.5,228.9,359.3,228.9,359.3z"/>
	<path class="st11" d="M239.8,356.9c7.9-1.9,13.3,2.7,19.9,7.1c5.7,3.8,6.9,7.5,0.5,4.4c-9.3-4.6-14.7-5.2-14.7-5.2L239.8,356.9z"/>
	<path class="st11" d="M232.6,359.3c-4,0-7.5-1.3-10.3-1c-2.8,0.2-11.7,9.4-10.3,10.1c0.1,0.1,0.2,0.1,0.3,0.1
		c2.1,0.8,4.5-0.1,5.7-2c1.3-2,3.3-4.4,5.7-3.5c4,1.4,8.2,1.3,8.2,1.3L232.6,359.3z"/>
	<path class="st11" d="M230.2,369.1c-4.1-1.6,2.5-15.3,4.6-15.3c2.2,0,10.4,6.5,10.4,6.5s-1.9,1.1-8.5-1.1c-1.6-0.5-3,8.7-4.9,9.8
		C230,370.2,230.2,369.1,230.2,369.1z"/>
	<path class="st10" d="M291.3,224.5c-0.4,15,4.7,17.6,8.3,19.6c3.6,2,19-1.3,21.3-5c5.8-9.5,0.9-18.4,2.2-18.2
		c1.3,0.1,2.5,3.8,5.9,8.6c0.3,0.4,2.5,3.4,2.6,2.4c1.6-13.4,8.6-17.6,6.9-31.2c-1.2-10-7.6-9.2-7.6-9.2s-4.1-8.4-16.9-7.4
		c-8.6,0.6-16.2,4-25,6.2c-8.8,2.3,10.4,22.3,21.9,15c11.4-7.3,5.8,8.8,7.6,10c1.8,1.2,0.9,0.2,1.7,8.4c0.8,8.2-9.6,13.6-12.6,14.3
		c-9.6,2.3-11.2,0.7-13.3-2.9C292.4,231.9,291.3,224.5,291.3,224.5z"/>
	<path class="st11" d="M331,219.8c-1.1,3.8-3.8,6.2-6,5.5c-2.2-0.8-2.3-3.8-2-8.2c0.2-4,3.8-6.2,6-5.5
		C331.2,212.3,332.1,216,331,219.8z"/>
	<g>
		<path class="st19" d="M172.6,227.2c0,6.1-4.9,11-11,11c-6.1,0-11-4.9-11-11c0-6.1,4.9-11,11-11
			C167.6,216.2,172.6,221.1,172.6,227.2z"/>
		<g>
			<path class="st20" d="M160.4,231.3C160.4,231.3,160.4,231.3,160.4,231.3c-0.3,0-0.5-0.1-0.6-0.3l-3-3.4c-0.3-0.3-0.3-0.9,0.1-1.2
				c0.3-0.3,0.9-0.3,1.2,0.1l2.4,2.7l5.8-5.7c0.3-0.3,0.9-0.3,1.2,0c0.3,0.3,0.3,0.9,0,1.2l-6.4,6.3
				C160.9,231.2,160.7,231.3,160.4,231.3z"/>
		</g>
	</g>
	<g>
		<path class="st21" d="M125.9,226.3H67.8c-5.1,0-9.3-4.2-9.3-9.3v-12.9c0-5.1,4.2-9.3,9.3-9.3h58.1c5.1,0,9.3,4.2,9.3,9.3V217
			C135.3,222.1,131.1,226.3,125.9,226.3z"/>
		<path class="st21" d="M127.3,222.4h-17.5l20.1,20.1C129.9,242.5,127.3,222.8,127.3,222.4z"/>
		<path class="st22" d="M123.4,223.2h-53c-4.4,0-7.9-3.6-7.9-7.9v-9.5c0-4.4,3.6-7.9,7.9-7.9h53c4.4,0,7.9,3.6,7.9,7.9v9.5
			C131.3,219.6,127.7,223.2,123.4,223.2z"/>
		<path class="st21" d="M99.9,204.1H68.9c-0.7,0-1.4-0.6-1.4-1.4s0.6-1.4,1.4-1.4h31.1c0.7,0,1.4,0.6,1.4,1.4
			S100.7,204.1,99.9,204.1z"/>
		<path class="st21" d="M125.9,219.3H68.2c-0.4,0-0.7-0.3-0.7-0.7v0c0-0.4,0.3-0.7,0.7-0.7h57.7c0.4,0,0.7,0.3,0.7,0.7v0
			C126.7,219,126.3,219.3,125.9,219.3z"/>
		<g>
			<path class="st21" d="M70.9,212.6h-0.4c-0.7,0-1.3-0.6-1.3-1.3v-0.1c0-0.7,0.6-1.3,1.3-1.3h0.4c0.7,0,1.3,0.6,1.3,1.3v0.1
				C72.3,212,71.7,212.6,70.9,212.6z"/>
			<path class="st21" d="M76.5,212.6h-0.4c-0.7,0-1.3-0.6-1.3-1.3v-0.1c0-0.7,0.6-1.3,1.3-1.3h0.4c0.7,0,1.3,0.6,1.3,1.3v0.1
				C77.8,212,77.2,212.6,76.5,212.6z"/>
			<path class="st21" d="M82.1,212.6h-0.4c-0.7,0-1.3-0.6-1.3-1.3v-0.1c0-0.7,0.6-1.3,1.3-1.3h0.4c0.7,0,1.3,0.6,1.3,1.3v0.1
				C83.4,212,82.8,212.6,82.1,212.6z"/>
		</g>
		<g>
			<path class="st21" d="M88.3,212.4h-0.4c-0.7,0-1.3-0.6-1.3-1.3V211c0-0.7,0.6-1.3,1.3-1.3h0.4c0.7,0,1.3,0.6,1.3,1.3v0.1
				C89.6,211.8,89,212.4,88.3,212.4z"/>
			<path class="st21" d="M93.8,212.4h-0.4c-0.7,0-1.3-0.6-1.3-1.3V211c0-0.7,0.6-1.3,1.3-1.3h0.4c0.7,0,1.3,0.6,1.3,1.3v0.1
				C95.2,211.8,94.6,212.4,93.8,212.4z"/>
			<path class="st21" d="M99.4,212.4H99c-0.7,0-1.3-0.6-1.3-1.3V211c0-0.7,0.6-1.3,1.3-1.3h0.4c0.7,0,1.3,0.6,1.3,1.3v0.1
				C100.7,211.8,100.1,212.4,99.4,212.4z"/>
		</g>
		<line class="st23" x1="69.1" y1="206.4" x2="69.1" y2="216.2"/>
	</g>
	<g>
		<path class="st21" d="M237.3,175.9h-58.1c-5.1,0-9.3-4.2-9.3-9.3v-12.9c0-5.1,4.2-9.3,9.3-9.3h58.1c5.1,0,9.3,4.2,9.3,9.3v12.9
			C246.6,171.7,242.4,175.9,237.3,175.9z"/>
		<path class="st21" d="M179.1,171.2v17.5l20.1-20.1C199.2,168.5,179.5,171.2,179.1,171.2z"/>
		<path class="st22" d="M234.7,172.8h-53c-4.4,0-7.9-3.6-7.9-7.9v-9.5c0-4.4,3.6-7.9,7.9-7.9h53c4.4,0,7.9,3.6,7.9,7.9v9.5
			C242.6,169.2,239.1,172.8,234.7,172.8z"/>
		<path class="st21" d="M211.3,153.7h-31.1c-0.7,0-1.4-0.6-1.4-1.4s0.6-1.4,1.4-1.4h31.1c0.7,0,1.4,0.6,1.4,1.4
			S212,153.7,211.3,153.7z"/>
		<path class="st21" d="M237.3,165.9h-57.7c-0.4,0-0.7-0.3-0.7-0.7v0c0-0.4,0.3-0.7,0.7-0.7h57.7c0.4,0,0.7,0.3,0.7,0.7v0
			C238,165.6,237.7,165.9,237.3,165.9z"/>
		<path class="st21" d="M237.3,168.9h-57.7c-0.4,0-0.7-0.3-0.7-0.7v0c0-0.4,0.3-0.7,0.7-0.7h57.7c0.4,0,0.7,0.3,0.7,0.7v0
			C238,168.6,237.7,168.9,237.3,168.9z"/>
		<g>
			<path class="st21" d="M182.6,161.2h-0.4c-0.8,0-1.5-0.7-1.5-1.5v-0.1c0-0.8,0.7-1.5,1.5-1.5h0.4c0.8,0,1.5,0.7,1.5,1.5v0.1
				C184,160.6,183.4,161.2,182.6,161.2z"/>
			<path class="st21" d="M188.6,161.2h-0.4c-0.8,0-1.5-0.7-1.5-1.5v-0.1c0-0.8,0.7-1.5,1.5-1.5h0.4c0.8,0,1.5,0.7,1.5,1.5v0.1
				C190.1,160.6,189.4,161.2,188.6,161.2z"/>
			<path class="st21" d="M194.7,161.2h-0.4c-0.8,0-1.5-0.7-1.5-1.5v-0.1c0-0.8,0.7-1.5,1.5-1.5h0.4c0.8,0,1.5,0.7,1.5,1.5v0.1
				C196.1,160.6,195.5,161.2,194.7,161.2z"/>
		</g>
		<g>
			<path class="st21" d="M201.4,160.9H201c-0.8,0-1.5-0.7-1.5-1.5v-0.1c0-0.8,0.7-1.5,1.5-1.5h0.4c0.8,0,1.5,0.7,1.5,1.5v0.1
				C202.9,160.3,202.2,160.9,201.4,160.9z"/>
			<path class="st21" d="M207.5,160.9h-0.4c-0.8,0-1.5-0.7-1.5-1.5v-0.1c0-0.8,0.7-1.5,1.5-1.5h0.4c0.8,0,1.5,0.7,1.5,1.5v0.1
				C208.9,160.3,208.3,160.9,207.5,160.9z"/>
			<path class="st21" d="M213.5,160.9h-0.4c-0.8,0-1.5-0.7-1.5-1.5v-0.1c0-0.8,0.7-1.5,1.5-1.5h0.4c0.8,0,1.5,0.7,1.5,1.5v0.1
				C215,160.3,214.3,160.9,213.5,160.9z"/>
		</g>
		<g>
			<g>
				<g>
					<path class="st21" d="M123.6,211.7c-0.5,0-1.1-0.1-1.6-0.3c-0.3-0.1-0.6,0-0.7,0.2l-1,0.8c-1.2-0.6-1.9-1.3-2.5-2.5l0.7-1
						c0.2-0.2,0.3-0.5,0.2-0.7c-0.2-0.5-0.3-1.1-0.3-1.6c0-0.4-0.3-0.7-0.7-0.7h-1.6c-0.4,0-0.7,0.3-0.7,0.7c0,4.5,3.7,8.2,8.2,8.2
						c0.4,0,0.7-0.3,0.7-0.7v-1.6C124.3,212.1,124,211.7,123.6,211.7z"/>
				</g>
			</g>
		</g>
	</g>
</g>
</svg>
