<svg enable-background="new 0 0 500 500" viewBox="0 0 500 500" xmlns="http://www.w3.org/2000/svg"><path d="m32.9 375.6s-40.9-50.7-16.4-99 71.2-36.8 136.6-85.9c79.5-59.6 135.3-62.9 206.2-36.8 40.1 14.7 46.6 75.3 110.5 112.9 57.5 33.9 10.6 91.6-19.6 100.6-30.3 9-50.7 9-50.7 9z" fill="#dcdcff"/><path d="m276.4 266.6c-10.2 20.7-23 77.4-26.5 80.5s-23.7 15.1-27.2 20.9-1.9 3.9-.4 4.3c1.6.4 89.2.8 89.2.8s-10.1-60.1-11.2-60.5c-1.1-.5-23.9-46-23.9-46z" fill="#ffdb94"/><path d="m261.9 372.8c16.1.1 33.1.2 42.4.2l-12.8-76.6c-6.8-13.2-15.1-29.8-15.1-29.8-1.3 2.6-2.6 5.8-4 9.4-1.3 57.5 7 73.6.7 83.9-4.8 8-9.2 11.5-11.2 12.9z" fill="#f4bd46"/><path d="m443.9 376.9h-420.9c-1.8 0-3.2-1.5-3.2-3.2 0-1.8 1.5-3.2 3.2-3.2h421c1.8 0 3.2 1.5 3.2 3.2s-1.5 3.2-3.3 3.2z" fill="#f39225"/><path d="m330.2 241.6c14.6 13.4 47 26.2 47 26.2s4.9 45.5 1.6 71.3c-3.4 25.8-1.5 31-1.5 31h-66.8s-9-12.4-25.4-51.2c-10.5-24.6-8.6-52.3-8.6-52.3l40.7-18.3z" fill="#ffdb94"/><path d="m310.4 370h66.8s-1.9-5.2 1.5-31c2.8-21.2-.1-55.8-1.2-67.4l-6.1-2.6c-15.3 4.4-24.1 27.2-26.6 49.4-1.7 14.9-26.4 29.5-42.5 37.6 5.3 10.1 8.1 14 8.1 14z" fill="#f4bd46"/><path d="m294 194.9c-8.1 17.9 1.6 34.6 1.3 33.9s12.2-30.3 12.2-30.3z" fill="#2e5b9a"/><path d="m324.5 208.1 10.2 37.3c.3 1.1 0 2.2-.6 3-2.4 3-5.8 9-12.7 11-1.3.4-3 .5-4.3.5-1.4 0-2.6-1-2.9-2.4l-6.8-35.4z" fill="#ffd0b0"/><path d="m322.6 211.3-3.7 1.5-11.5 9.4 6.2 31.4c10.4-6.5 11.9-10.9 9-42.3z" fill="#fcab75"/><path d="m324.2 224.7c-2.3 12.3-11.5 20.6-20.5 18.6-9.1-2-13.4-10-12.3-25.9.8-12.5 7-26.1 16.1-24.1 9 2 18.9 19.1 16.7 31.4z" fill="#ffd0b0"/><path d="m377.2 267.8c13.5 3.1 16 30.5 20.4 59.5.5 3.3 3.1 31.6 3.1 31.6s.3 5.2-4.9 7.8c-4.4 2.2-6.2 3.9-31.8 4.1-24.6.2-56.3-.8-56.3-.8s-.3-9.1 2.2-13.6c3.8-6.7 42.7-16.4 46.3-16.9.5-7.2-3.6-33.4 2.1-51.2 3.9-12.2 8.1-18.6 13.3-20.3 1.7-.7 3.6-.7 5.6-.2z" fill="#ffdb94"/><path d="m321.6 370.5c12.1.2 28.8.4 42.4.2 25.6-.3 27.4-1.9 31.8-4.1 5.2-2.6 5.4-7 5.4-7s-2.6-30-3.1-33.4c-2.8-19.4-5.9-41.6-13.1-52.3 6.7 19.7 7.8 36.3 7.9 43.4.1 3.6-.3 8.5-1.3 12-1.2 3.8-4.1 6.2-8.8 4.9-9.3-2.6-20.9 2.8-20.9 2.8s8.8-3.1 17.1-.3 25.3 21.7 6.7 28.7c-5.7 2.3-39.8 4-64.1 5.1z" fill="#f4bd46"/><path d="m312 357.2s3.4-5.9 10.5-5.9 6.6 11.6 5.5 15.3c-1 3.8-5.2 4-5.2 4l-15.2-.7z" fill="#96cfe0"/><path d="m296.3 373.2h-95.1c-1.6 0-2.9-1.3-2.9-2.9v-.2c0-1.6 1.3-2.9 2.9-2.9h95.1c1.6 0 2.9 1.3 2.9 2.9v.2c0 1.6-1.3 2.9-2.9 2.9z" fill="#75a1de"/><path d="m310.1 357.8c-14.8-5.3-18.7-3.3-22.1-4.3-8.3-2.4-10.3-.3-15.7 14.3-1.1 2.9 2.1 3.1 5.2 3.1s6.9-6 8.1-6.7 4.5-1 4.5-1-1 0-2.6 3.1-3.4 4.3-1 4.3 2.8-4 7.2-3.1c4.5.9 2.8 3.1 14 2.9s19.7 0 19.5-6.7c-.2-6.4.5-9.6-5.5-10.7-4.7-.8-11.6 4.8-11.6 4.8z" fill="#ffd0b0"/><path d="m310.3 357.8c9.9-1.1 7 11.2 6 12.3-1 1 5.5.4 5.5.4s3.1-5 .5-10.6c-2.6-5.7-7.8-5.9-7.8-5.9l-4.4 2.4z" fill="#a86b48"/><path d="m320.6 356.8c-.1 1.5-2.7 2.6-5.8 2.3s-5.5-1.7-5.3-3.2c.1-1.5 2.7-2.6 5.8-2.3 3.1.2 5.5 1.6 5.3 3.2z" fill="#2e5b9a"/><path d="m319.9 356c-.1 1.4-2.4 2.3-5.2 2.1s-4.9-1.5-4.8-2.9 2.4-2.3 5.2-2.1c2.7.2 4.9 1.5 4.8 2.9z" fill="#3e6bab"/><path d="m318.1 355.4c-.1 1-1.8 1.6-3.7 1.5-2-.2-3.5-1.1-3.4-2.1s1.8-1.6 3.7-1.5c2 .2 3.5 1.1 3.4 2.1z" fill="#f0ceb4"/><path d="m197.5 354.3h-96.4c-5.1 0-9.4-3.7-10.3-8.7l-12.6-69.4c-1.2-6.5 3.8-12.6 10.3-12.6h96.4c5.1 0 9.4 3.7 10.3 8.7l12.6 69.4c1.2 6.6-3.8 12.6-10.3 12.6z" fill="#75a1de"/><path d="m202 342-12.9-68c-.9-4.9-5.4-8.5-10.5-8.5h-97.9c-2.1 2.4-3.1 5.7-2.5 9.1l13 70.8c.9 5.2 5.4 8.9 10.7 8.9h89.5c6.7 0 11.8-5.9 10.6-12.3z" fill="#a8ceff"/><path d="m178.7 363.6h-18.3c-3.3 0-5.9-2.9-5.9-6.5v-33.4c0-5.7-4.2-10.3-9.4-10.3h-9.6c-5.2 0-9.4 4.6-9.4 10.3v37.5c0 6.4 4.7 11.6 10.6 11.5l49.9-.3c.1-4.9-3.5-8.8-7.9-8.8z" fill="#75a1de"/><path d="m126.9 324.4v36.9c0 6 4.7 10.9 10.5 11.3l48.7-.3c0-.8-3.8-2.3-8.6-2.3h-19.8c-3.5 0-6.4-2.9-6.4-6.4v-39.3c0-5.6-4.6-10.2-10.2-10.2h-4.2c-5.4.1-10 4.7-10 10.3z" fill="#a8ceff"/><path d="m228.9 359.3c7.4-4.1 16.4-2.7 19.6 1.4 3.3 4.1 3.8 6.8-3.5 6.8-7.4 0-22.1.5-24.5.3-2.5-.3 8.4-8.5 8.4-8.5z" fill="#fcab75"/><path d="m239.8 356.9c7.9-1.9 13.3 2.7 19.9 7.1 5.7 3.8 6.9 7.5.5 4.4-9.3-4.6-14.7-5.2-14.7-5.2z" fill="#ffd0b0"/><path d="m232.6 359.3c-4 0-7.5-1.3-10.3-1-2.8.2-11.7 9.4-10.3 10.1.1.1.2.1.3.1 2.1.8 4.5-.1 5.7-2 1.3-2 3.3-4.4 5.7-3.5 4 1.4 8.2 1.3 8.2 1.3z" fill="#ffd0b0"/><path d="m230.2 369.1c-4.1-1.6 2.5-15.3 4.6-15.3 2.2 0 10.4 6.5 10.4 6.5s-1.9 1.1-8.5-1.1c-1.6-.5-3 8.7-4.9 9.8-1.8 1.2-1.6.1-1.6.1z" fill="#ffd0b0"/><path d="m291.3 224.5c-.4 15 4.7 17.6 8.3 19.6s19-1.3 21.3-5c5.8-9.5.9-18.4 2.2-18.2 1.3.1 2.5 3.8 5.9 8.6.3.4 2.5 3.4 2.6 2.4 1.6-13.4 8.6-17.6 6.9-31.2-1.2-10-7.6-9.2-7.6-9.2s-4.1-8.4-16.9-7.4c-8.6.6-16.2 4-25 6.2-8.8 2.3 10.4 22.3 21.9 15 11.4-7.3 5.8 8.8 7.6 10s.9.2 1.7 8.4-9.6 13.6-12.6 14.3c-9.6 2.3-11.2.7-13.3-2.9-1.9-3.2-3-10.6-3-10.6z" fill="#2e5b9a"/><path d="m331 219.8c-1.1 3.8-3.8 6.2-6 5.5-2.2-.8-2.3-3.8-2-8.2.2-4 3.8-6.2 6-5.5s3.1 4.4 2 8.2z" fill="#ffd0b0"/><path d="m172.6 227.2c0 6.1-4.9 11-11 11s-11-4.9-11-11 4.9-11 11-11c6 0 11 4.9 11 11z" fill="#9cd499"/><path d="m160.4 231.3c-.3 0-.5-.1-.6-.3l-3-3.4c-.3-.3-.3-.9.1-1.2.3-.3.9-.3 1.2.1l2.4 2.7 5.8-5.7c.3-.3.9-.3 1.2 0s.3.9 0 1.2l-6.4 6.3c-.2.2-.4.3-.7.3z" fill="#fff"/><path d="m125.9 226.3h-58.1c-5.1 0-9.3-4.2-9.3-9.3v-12.9c0-5.1 4.2-9.3 9.3-9.3h58.1c5.1 0 9.3 4.2 9.3 9.3v12.9c.1 5.1-4.1 9.3-9.3 9.3z" fill="#5d54c1"/><path d="m127.3 222.4h-17.5l20.1 20.1s-2.6-19.7-2.6-20.1z" fill="#5d54c1"/><path d="m123.4 223.2h-53c-4.4 0-7.9-3.6-7.9-7.9v-9.5c0-4.4 3.6-7.9 7.9-7.9h53c4.4 0 7.9 3.6 7.9 7.9v9.5c0 4.3-3.6 7.9-7.9 7.9z" fill="#e4e3ff"/><path d="m99.9 204.1h-31c-.7 0-1.4-.6-1.4-1.4s.6-1.4 1.4-1.4h31.1c.7 0 1.4.6 1.4 1.4s-.7 1.4-1.5 1.4z" fill="#5d54c1"/><path d="m125.9 219.3h-57.7c-.4 0-.7-.3-.7-.7 0-.4.3-.7.7-.7h57.7c.4 0 .7.3.7.7.1.4-.3.7-.7.7z" fill="#5d54c1"/><path d="m70.9 212.6h-.4c-.7 0-1.3-.6-1.3-1.3v-.1c0-.7.6-1.3 1.3-1.3h.4c.7 0 1.3.6 1.3 1.3v.1c.1.7-.5 1.3-1.3 1.3z" fill="#5d54c1"/><path d="m76.5 212.6h-.4c-.7 0-1.3-.6-1.3-1.3v-.1c0-.7.6-1.3 1.3-1.3h.4c.7 0 1.3.6 1.3 1.3v.1c0 .7-.6 1.3-1.3 1.3z" fill="#5d54c1"/><path d="m82.1 212.6h-.4c-.7 0-1.3-.6-1.3-1.3v-.1c0-.7.6-1.3 1.3-1.3h.4c.7 0 1.3.6 1.3 1.3v.1c0 .7-.6 1.3-1.3 1.3z" fill="#5d54c1"/><path d="m88.3 212.4h-.4c-.7 0-1.3-.6-1.3-1.3v-.1c0-.7.6-1.3 1.3-1.3h.4c.7 0 1.3.6 1.3 1.3v.1c0 .7-.6 1.3-1.3 1.3z" fill="#5d54c1"/><path d="m93.8 212.4h-.4c-.7 0-1.3-.6-1.3-1.3v-.1c0-.7.6-1.3 1.3-1.3h.4c.7 0 1.3.6 1.3 1.3v.1c.1.7-.5 1.3-1.3 1.3z" fill="#5d54c1"/><path d="m99.4 212.4h-.4c-.7 0-1.3-.6-1.3-1.3v-.1c0-.7.6-1.3 1.3-1.3h.4c.7 0 1.3.6 1.3 1.3v.1c0 .7-.6 1.3-1.3 1.3z" fill="#5d54c1"/><path d="m69.1 206.4v9.8" fill="none" stroke="#5d54c1" stroke-miterlimit="10"/><path d="m237.3 175.9h-58.1c-5.1 0-9.3-4.2-9.3-9.3v-12.9c0-5.1 4.2-9.3 9.3-9.3h58.1c5.1 0 9.3 4.2 9.3 9.3v12.9c0 5.1-4.2 9.3-9.3 9.3z" fill="#5d54c1"/><path d="m179.1 171.2v17.5l20.1-20.1c0-.1-19.7 2.6-20.1 2.6z" fill="#5d54c1"/><path d="m234.7 172.8h-53c-4.4 0-7.9-3.6-7.9-7.9v-9.5c0-4.4 3.6-7.9 7.9-7.9h53c4.4 0 7.9 3.6 7.9 7.9v9.5c0 4.3-3.5 7.9-7.9 7.9z" fill="#e4e3ff"/><g fill="#5d54c1"><path d="m211.3 153.7h-31.1c-.7 0-1.4-.6-1.4-1.4s.6-1.4 1.4-1.4h31.1c.7 0 1.4.6 1.4 1.4s-.7 1.4-1.4 1.4z"/><path d="m237.3 165.9h-57.7c-.4 0-.7-.3-.7-.7 0-.4.3-.7.7-.7h57.7c.4 0 .7.3.7.7 0 .4-.3.7-.7.7z"/><path d="m237.3 168.9h-57.7c-.4 0-.7-.3-.7-.7 0-.4.3-.7.7-.7h57.7c.4 0 .7.3.7.7 0 .4-.3.7-.7.7z"/><path d="m182.6 161.2h-.4c-.8 0-1.5-.7-1.5-1.5v-.1c0-.8.7-1.5 1.5-1.5h.4c.8 0 1.5.7 1.5 1.5v.1c-.1.9-.7 1.5-1.5 1.5z"/><path d="m188.6 161.2h-.4c-.8 0-1.5-.7-1.5-1.5v-.1c0-.8.7-1.5 1.5-1.5h.4c.8 0 1.5.7 1.5 1.5v.1c0 .9-.7 1.5-1.5 1.5z"/><path d="m194.7 161.2h-.4c-.8 0-1.5-.7-1.5-1.5v-.1c0-.8.7-1.5 1.5-1.5h.4c.8 0 1.5.7 1.5 1.5v.1c-.1.9-.7 1.5-1.5 1.5z"/><path d="m201.4 160.9h-.4c-.8 0-1.5-.7-1.5-1.5v-.1c0-.8.7-1.5 1.5-1.5h.4c.8 0 1.5.7 1.5 1.5v.1c0 .9-.7 1.5-1.5 1.5z"/><path d="m207.5 160.9h-.4c-.8 0-1.5-.7-1.5-1.5v-.1c0-.8.7-1.5 1.5-1.5h.4c.8 0 1.5.7 1.5 1.5v.1c-.1.9-.7 1.5-1.5 1.5z"/><path d="m213.5 160.9h-.4c-.8 0-1.5-.7-1.5-1.5v-.1c0-.8.7-1.5 1.5-1.5h.4c.8 0 1.5.7 1.5 1.5v.1c0 .9-.7 1.5-1.5 1.5z"/><path d="m123.6 211.7c-.5 0-1.1-.1-1.6-.3-.3-.1-.6 0-.7.2l-1 .8c-1.2-.6-1.9-1.3-2.5-2.5l.7-1c.2-.2.3-.5.2-.7-.2-.5-.3-1.1-.3-1.6 0-.4-.3-.7-.7-.7h-1.6c-.4 0-.7.3-.7.7 0 4.5 3.7 8.2 8.2 8.2.4 0 .7-.3.7-.7v-1.6c0-.4-.3-.8-.7-.8z"/></g></svg>