<svg enable-background="new 0 0 500 500" viewBox="0 0 500 500" xmlns="http://www.w3.org/2000/svg"><path d="m184.3 395.9c-123.8-7.2-223.1-138.2-157.2-214.2 51.1-59 119.2 26.9 182.8-16.4 97.8-66.5 256.1-78.6 277.1 5.2s-48.5 214.9-100.2 222.7c-51.8 7.9-202.5 2.7-202.5 2.7z" fill="#dcdcff"/><path d="m443.1 400.6h-298.4c-2.2 0-3.9-1.7-3.9-3.9s1.7-3.9 3.9-3.9h298.4c2.2 0 3.9 1.7 3.9 3.9s-1.7 3.9-3.9 3.9z" fill="#f39225"/><path d="m200.3 218.3c1.3 31.4 1 48.5-10.5 61.6s-43.6 9.8-43.6 9.8-3.2 46.3-48 48.3c-44.9 2-51.3-57.6-16.2-72.9 33.5-14.5 44.1-18.8 55.7-54.8 10.6-32.9 43.6-26.6 51.4-12.9 8 13.7 11.2 20.9 11.2 20.9z" fill="#303c60"/><path d="m185.6 378.8s21.2 4.1 22.3 3.9 24.2-10.5 26.6-9 16.4 7.4 19.4 8.7c3.1 1.3-1.7 1.7-4.1 1.7s-16.2-5.7-17.7-4.6 12 3.3 12 4.1-36.2 9.2-38.4 9.2-19-1.5-19-1.5z" fill="#fcab75"/><path d="m168 263.2c11.4 2.2 18.1 14.3 20.3 24.9s-20.3-24.9-20.3-24.9z" fill="#c68b14"/><path d="m148.9 255s-21.9 14.7-33.7 21.9 4.3 84.8 8.2 113.7c3.9 28.8 72.1 2.6 72.1 2.6s-4.6-24.2 1.3-63.2c4.2-27.9-11.2-45.4-20.1-57.5-22.4-30.6-27.8-17.5-27.8-17.5z" fill="#f4bd46"/><path d="m127.3 277.3c25.2 30.8 33.7 36.5 27.5 57.3-4.9 16.4-6.6 22.3-7.5 27.8-1 5.6 46.8-3.6 46.8-3.6l-.3 18s-37.7 18-56 21.6-29.8-.7-29.8-.7z" fill="#c68b14"/><path d="m157 224-11.4 33.6s12.4 33.7 22.9 26.2c3.6-2.6-1.3-22.9-1.3-22.9l7.6-27.3z" fill="#ffd0b0"/><path d="m120.7 276c-15.7 1.7-17 22.9-24.2 58.3s-5 58.7-1.6 63.2c8.2 10.8 100.2-26.9 111.7-26.5 7.9.2 1.3-13.1 1.3-13.1l-87.8 13.4s12.4-40.9 12.4-61.9-5.9-34.1-11.8-33.4z" fill="#ffd0b0"/><path d="m202.3 358.5c9.2-2.3 22.6-7.5 25.2-5.2s13.4 18.7 17 23.3-1.6 1-5.6-2.6c-3.9-3.6-7.2-5.6-7.2-5.6s-4.9 4.6-9.5 7.2-6.2-2.6-14.1-3.9-27.5 5.6-27.5 5.6z" fill="#ffd0b0"/><path d="m122.5 273.4c-9.6.4-17 8.5-19.7 21-2.6 12.4-10.3 52-10.3 52s-1.5 1.1 14.4 3.9 29-.4 29-.4 3.3-22.5 2.4-38-4.4-30.1-10-35.2-5.8-3.3-5.8-3.3z" fill="#f4bd46"/><path d="m167.3 260.9 7.6-27.3-17.9-9.6-2.7 8.1c-.6 27.1 6.4 36.2 11 39.5 1.5 1 2.7.2 3.8-1.5-.8-4.8-1.8-9.2-1.8-9.2z" fill="#fcab75"/><path d="m203.6 227.2c0 14.6-1.7 32.5-14.4 32.1-19.7-.7-32-15.9-32-30.5s10.3-26.5 22.9-26.5c12.7 0 23.5 10.3 23.5 24.9z" fill="#ffd0b0"/><path d="m59 288.9c-.1 0-.1 0 0 0-.3 0-.5-.3-.5-.6.6-6 3.6-12.2 8.5-17.4 5.5-5.9 13.4-10.5 22.7-13.4 20.8-6.4 38.9-14.6 50.3-49.7.1-.3.4-.4.6-.3.3.1.4.4.3.6-5.2 16.1-12.4 27.9-21.8 35.9-8.3 7.1-17.7 10.9-29.2 14.5-9.2 2.8-16.9 7.4-22.3 13.1-4.7 5-7.6 11-8.2 16.8 0 .3-.2.5-.4.5z" fill="#303c60"/><path d="m68.3 264.7c-.2 0-.3-.1-.4-.2-.2-.2-.1-.5.1-.7.1-.1 9-6.9 21.8-9.7 24.7-5.4 41.2-20.3 47.9-42.9.1-.3.4-.4.6-.3.3.1.4.4.3.6-4.1 14-11.9 25-23 32.8-7.2 5-15.8 8.6-25.6 10.8-12.6 2.8-21.3 9.4-21.4 9.5 0 .1-.1.1-.3.1z" fill="#303c60"/><path d="m182 197.2c13.9-1 22.2 11.7 24.6 22.9 1.7 8 .9 9.6.9 9.6s-1.5 2.2-12.4 2.8c-10.9.7-12.2.4-12.2.4l-.7-12.7-3.3 12.2s-1.7 2.4-8.5-.9-9.8-14.2-9.8-14.2-1.5-7.2 3.7-12c5.1-4.6 17.7-8.1 17.7-8.1z" fill="#303c60"/><path d="m350.3 392.8h-73.7l30.3-66.7c.9-1.9 2.8-3.2 5-3.2h66.9c1.5 0 2.6 1.6 1.9 3z" fill="#9bd6e8"/><path d="m350.1 392.8h-135.9c0-4.7 3.8-8.6 8.6-8.6h127.3z" fill="#9bd6e8"/><path d="m378.7 322.9h-58.9c-2.1 0-4.1 1.2-5 3.2l-30.3 66.7h65.7l30.4-66.9c.7-1.4-.3-3-1.9-3z" fill="#7bcee8"/><path d="m171.6 230.1c-1.3 8.8-8.4 15.1-15.8 14s-12.3-9.2-10.9-18c1.3-8.8 8.4-15.1 15.8-14s12.3 9.1 10.9 18z" fill="#d54a41"/><path d="m166.3 229.8c-1.2 8.2-7 14.1-12.9 13.2s-9.7-8.2-8.5-16.4 7-14.1 12.9-13.2c6 .9 9.8 8.3 8.5 16.4z" fill="#f39892"/><path d="m157.3 228c-.7 4.5-3.1 7.9-5.5 7.5-2.3-.4-3.7-4.3-3-8.8s3.1-7.9 5.5-7.5c2.3.4 3.7 4.3 3 8.8z" fill="#f2e5de"/><path d="m156.9 212.3c6.4-23.7 28.4-20.3 34-17 4.7 2.8 5.3 6.7 5.3 6.7s-6.1-4.9-16.4-3.1c-9.8 1.7-15.6 7.5-16.4 13.9-.3 3.2-6.5-.5-6.5-.5z" fill="#d54a41"/><path d="m411.1 372.8c0-1.4 16.4-46.8 5.3-76-7.8-20.5-9-45-9-45s-15.1 21.7-4.9 54.9c6.3 20.4 8.9 26.1 9.4 32.1s-2.5 36-2.5 36z" fill="#9cd499"/><path d="m409.4 375.2c-.1 0-.1 0-.2 0-.2-.1-.3-.3-.3-.5 0-.3 3-30 2.5-35.9-.4-3.9-1.6-7.6-4.2-15.7-1.4-4.2-3-9.3-5.2-16.2-5.3-17.2-3.7-31.3-1.4-40.1 2.5-9.5 6.2-14.9 6.4-15.2.1-.2.3-.3.6-.2.2.1.4.2.4.5 0 .2 1.3 24.7 9 44.9 4.2 10.9 5 25.3 2.5 42.8-2 14-5.6 25.9-7.1 31-.3 1.2-.6 2.2-.7 2.4 0 .1 0 .2-.1.3l-1.6 1.9c-.3 0-.4 0-.6 0zm-2.4-121.8c-1.2 2.1-3.7 6.8-5.4 13.6-2.3 8.7-3.9 22.5 1.4 39.5 2.1 6.9 3.8 12.1 5.2 16.2 2.7 8.2 3.9 11.9 4.3 16 .5 5.3-1.7 28.2-2.3 34.5l.5-.6c.1-.3.2-.9.7-2.4 9.5-31.7 11.1-56.3 4.6-73.2-6.7-17.4-8.6-37.8-9-43.6z" fill="#74b570"/><path d="m414.6 377.4c-2.5-50.5 9.6-78 34.1-99.9 24.6-21.8 25.7-27.6 25.7-27.6s-3.8 42.6-18 57.3-34.9 25.7-37.9 33.3-1.9 33.3-1.9 33.3l-1.9 4.6v-1z" fill="#9cd499"/><path d="m411.6 381.8c-.3-.8 5.2-47.2 25.1-49.9s24.6 1.9 38.2-.3c9.7-1.6 17.2-4.6 17.2-4.6s-5.2 13.2-22.9 18.6c-12.6 3.8-28.9-2.5-38.5-.8-9.6 1.6-14.5 22.1-14.5 22.1l-1.6 10.6z" fill="#9cd499"/><path d="m414.3 375c-.3 0-.5-.2-.5-.5s-2.9-32.9 11-57.9c7.1-12.9 14.9-20.4 22.5-27.6 7-6.7 13.7-13.1 18.7-23.2.1-.2.4-.3.7-.2.2.1.4.4.2.7-5.1 10.2-11.8 16.6-18.9 23.4-7.5 7.2-15.2 14.6-22.3 27.3-13.7 24.7-10.9 57-10.9 57.3.1.4-.1.6-.5.7.1-.1.1 0 0 0z" fill="#74b570"/><path d="m413 368.4h-.1c-.3-.1-.4-.4-.3-.6 5.2-18 11.2-28.5 18.9-33.1 6.8-4.1 13.9-2.8 21.4-1.5 1.8.3 3.7.7 5.6.9 16.3 2.1 24.2-1.8 24.3-1.9.2-.1.6 0 .7.2s0 .6-.2.7c-.3.2-8.2 4.1-24.9 2-1.9-.2-3.8-.6-5.6-.9-7.3-1.3-14.2-2.5-20.7 1.4-7.4 4.4-13.3 14.7-18.4 32.5-.3.2-.5.3-.7.3z" fill="#74b570"/><path d="m439 298.4c-.2 0-.3-.1-.4-.2-.2-.2-.1-.5.1-.7.1-.1 9.8-7.5 23.3-10.1.3-.1.5.1.6.4s-.1.5-.4.6c-13.2 2.5-22.8 9.8-22.8 9.9-.1.1-.3.1-.4.1z" fill="#74b570"/><path d="m423.6 320.4c-.1 0-.2 0-.3-.1-.2-.1-.3-.5-.2-.7 7.1-12 15.4-15 33.6-20.7.3-.1.5.1.6.3.1.3-.1.5-.3.6-17.9 5.6-26.1 8.6-33 20.2 0 .3-.2.4-.4.4z" fill="#74b570"/><path d="m419.2 394.2h-12.2c-4.3 0-8-3.1-8.8-7.3l-3.9-20.6h37.7l-3.9 20.6c-.9 4.3-4.6 7.3-8.9 7.3z" fill="#f39892"/><path d="m431 371.6h-35.5c-.6 0-1-.5-1-1 0-.6.5-1 1-1h35.5c.6 0 1 .5 1 1 0 .6-.5 1-1 1z" fill="#d54a41"/><path d="m320.2 200.1h-84.9c-2.7 0-4.1-2.2-3.1-4.9l12.8-35.3c1-2.7 4-4.9 6.7-4.9h84.9c2.7 0 4.1 2.2 3.1 4.9l-12.8 35.3c-1 2.7-4 4.9-6.7 4.9z" fill="#5d54c1"/><path d="m317.3 196.4h-76.4c-2.3 0-3.6-1.9-2.7-4.3l10.6-29.2c.9-2.3 3.5-4.3 5.8-4.3h76.4c2.3 0 3.6 1.9 2.7 4.3l-10.6 29.2c-.8 2.4-3.4 4.3-5.8 4.3z" fill="#fff"/><g fill="#5d54c1"><path d="m239.6 198.1c-6.5 18.6.2 24.3.2 24.3s.1-10.7 5-15.9 10.6-7.4 10.6-7.4z"/><path d="m291.7 184.9h-41.6c-.7 0-1.1-.6-.9-1.4l.1-.3c.3-.7 1.1-1.4 1.8-1.4h41.6c.7 0 1.1.6.9 1.4l-.1.3c-.2.8-1 1.4-1.8 1.4z"/><path d="m397.5 240h-81.9c-1.5 0-2.2-.6-1.7-1.4l.2-.3c.5-.7 2.2-1.4 3.6-1.4h81.9c1.5 0 2.2.6 1.7 1.4l-.2.3c-.5.8-2.1 1.4-3.6 1.4z"/><path d="m393 250.4h-81.9c-1.5 0-2.2-.6-1.7-1.4l.2-.3c.5-.7 2.2-1.4 3.6-1.4h81.9c1.5 0 2.2.6 1.7 1.4l-.2.3c-.5.8-2.1 1.4-3.6 1.4z"/><path d="m311 187.4h-6c-2.7 0-4.1-2.2-3.1-4.9l4.5-12.3c1-2.7 4-4.9 6.7-4.9h6c2.7 0 4.1 2.2 3.1 4.9l-4.5 12.3c-.9 2.7-4 4.9-6.7 4.9z"/><path d="m256.4 176.7h-2c-.4 0-.7-.3-.5-.8l.6-1.7c.2-.4.6-.8 1.1-.8h2c.4 0 .7.3.5.8l-.6 1.7c-.1.4-.6.8-1.1.8z"/><path d="m263 176.7h-2c-.4 0-.7-.3-.5-.8l.6-1.7c.2-.4.6-.8 1.1-.8h2c.4 0 .7.3.5.8l-.6 1.7c-.2.4-.7.8-1.1.8z"/><path d="m269.5 176.7h-2c-.4 0-.7-.3-.5-.8l.6-1.7c.2-.4.6-.8 1.1-.8h2c.4 0 .7.3.5.8l-.6 1.7c-.2.4-.7.8-1.1.8z"/><path d="m278.3 176.5h-2c-.4 0-.7-.3-.5-.8l.6-1.7c.2-.4.6-.8 1.1-.8h2c.4 0 .7.3.5.8l-.6 1.7c-.2.4-.7.8-1.1.8z"/><path d="m284.8 176.5h-2c-.4 0-.7-.3-.5-.8l.6-1.7c.2-.4.6-.8 1.1-.8h2c.4 0 .7.3.5.8l-.6 1.7c-.2.4-.7.8-1.1.8z"/><path d="m291.3 176.5h-2c-.4 0-.7-.3-.5-.8l.6-1.7c.2-.4.6-.8 1.1-.8h2c.4 0 .7.3.5.8l-.6 1.7c-.2.4-.6.8-1.1.8z"/></g></svg>