<?xml version="1.0" encoding="utf-8"?>
<!-- Generator: Adobe Illustrator 24.3.0, SVG Export Plug-In . SVG Version: 6.00 Build 0)  -->
<svg version="1.1" id="Layer_1" xmlns:svgjs="http://svgjs.com/svgjs"
	 xmlns="http://www.w3.org/2000/svg" xmlns:xlink="http://www.w3.org/1999/xlink" x="0px" y="0px" viewBox="0 0 512 512"
	 style="enable-background:new 0 0 512 512;" xml:space="preserve">
<style type="text/css">
	.st0{fill:#CCEBD1;}
	.st1{fill:#FFFFFF;}
</style>
<circle class="st0" cx="256" cy="256" r="256"/>
<g transform="matrix(0.54,0,0,0.54,117.75999999999999,117.75999999999999)">
	<g>
		<g>
			<g>
				<path class="st1" d="M202.9,52.3h-124c-14.6,0-26.6,11.9-26.6,26.6v124c0,14.6,11.9,26.6,26.6,26.6h124
					c14.6,0,26.6-11.9,26.6-26.6v-124C229.4,64.2,217.5,52.3,202.9,52.3z"/>
				<path class="st1" d="M433.1,52.3h-124c-14.6,0-26.6,11.9-26.6,26.6v124c0,14.6,11.9,26.6,26.6,26.6h124
					c14.6,0,26.6-11.9,26.6-26.6v-124C459.7,64.2,447.8,52.3,433.1,52.3z"/>
				<path class="st1" d="M202.9,282.6h-124c-14.6,0-26.6,11.9-26.6,26.6v124c0,14.6,11.9,26.6,26.6,26.6h124
					c14.6,0,26.6-11.9,26.6-26.6v-124C229.4,294.5,217.5,282.6,202.9,282.6z"/>
				<path class="st1" d="M433.1,282.6h-124c-14.6,0-26.6,11.9-26.6,26.6v124c0,14.6,11.9,26.6,26.6,26.6h124
					c14.6,0,26.6-11.9,26.6-26.6v-124C459.7,294.5,447.8,282.6,433.1,282.6z"/>
			</g>
		</g>
	</g>
</g>
</svg>
