<svg enable-background="new 0 0 512 512" viewBox="0 0 512 512" xmlns="http://www.w3.org/2000/svg"><circle cx="256" cy="256" fill="#ccebd1" r="256"/><g fill="#fff" transform="matrix(.54 0 0 .54 117.76 117.76)"><path d="m202.9 52.3h-124c-14.6 0-26.6 11.9-26.6 26.6v124c0 14.6 11.9 26.6 26.6 26.6h124c14.6 0 26.6-11.9 26.6-26.6v-124c-.1-14.7-12-26.6-26.6-26.6z"/><path d="m433.1 52.3h-124c-14.6 0-26.6 11.9-26.6 26.6v124c0 14.6 11.9 26.6 26.6 26.6h124c14.6 0 26.6-11.9 26.6-26.6v-124c0-14.7-11.9-26.6-26.6-26.6z"/><path d="m202.9 282.6h-124c-14.6 0-26.6 11.9-26.6 26.6v124c0 14.6 11.9 26.6 26.6 26.6h124c14.6 0 26.6-11.9 26.6-26.6v-124c-.1-14.7-12-26.6-26.6-26.6z"/><path d="m433.1 282.6h-124c-14.6 0-26.6 11.9-26.6 26.6v124c0 14.6 11.9 26.6 26.6 26.6h124c14.6 0 26.6-11.9 26.6-26.6v-124c0-14.7-11.9-26.6-26.6-26.6z"/></g></svg>