<svg enable-background="new 0 0 512 512" viewBox="0 0 512 512" xmlns="http://www.w3.org/2000/svg"><circle cx="256" cy="256" fill="#ded0ff" r="256"/><path d="m270 50.5c-121.2.1-219.4 98.3-219.5 219.5v172.4c0 26 21.1 47 47 47h62.7c8.7 0 15.7-7 15.7-15.7v-156.7c0-8.7-7-15.7-15.7-15.7h-62.7c-5.4.1-10.7 1-15.7 2.9v-34.2c0-103.9 84.2-188.1 188.1-188.1s188.2 84.2 188.2 188.1v34.3c-5-1.9-10.3-2.8-15.7-2.9h-62.7c-8.7 0-15.7 7-15.7 15.7v156.8c0 8.7 7 15.7 15.7 15.7h62.7c26 0 47-21.1 47-47v-172.6c-.1-121.2-98.3-219.4-219.4-219.5z" fill="#fff" transform="matrix(.55 0 0 .55 107.520076 107.520069)"/></svg>