<svg enable-background="new 0 0 36 36" viewBox="0 0 36 36" xmlns="http://www.w3.org/2000/svg"><path d="m26.2 23.1-.7.7c-.3.3-.8.3-1.1 0l-4-4-4 4c-.3.3-.8.3-1.1 0l-.7-.7c-.3-.3-.3-.8 0-1.1l4-4-4-4c-.3-.3-.3-.8 0-1.1l.7-.7c.3-.3.8-.3 1.1 0l4 4 4-4c.3-.3.8-.3 1.1 0l.7.7c.3.3.3.8 0 1.1l-4 4 4 4c.3.3.3.8 0 1.1z" fill="#9b9b9b"/><path d="m30.5 6.7h-18.9c-.9 0-1.5.4-2 1.1l-6.5 9.8c-.2.3-.2.6 0 .8l6.5 9.8c.5.6 1.1 1.1 2 1.1h18.8c1.4 0 2.5-1.1 2.5-2.5v-17.6c.1-1.4-1-2.5-2.4-2.5z" fill="none" stroke="#9b9b9b" stroke-linejoin="round" stroke-miterlimit="10" stroke-width="2.0101"/></svg>