<?xml version="1.0"?>
<svg xmlns="http://www.w3.org/2000/svg" xmlns:xlink="http://www.w3.org/1999/xlink" xmlns:svgjs="http://svgjs.com/svgjs" version="1.1" width="512" height="512" x="0" y="0" viewBox="0 0 512 512" style="enable-background:new 0 0 512 512" xml:space="preserve" class=""><g transform="matrix(0.9800000000000001,0,0,0.9800000000000001,5.119999999999976,5.119999999999976)">
<circle xmlns="http://www.w3.org/2000/svg" style="" cx="256" cy="256" r="256" fill="#c7c7c7" data-original="#273b7a" class=""/>
<path xmlns="http://www.w3.org/2000/svg" style="" d="M275.787,511.245c110.132-8.418,200.761-86.526,227.895-190.311L361.625,178.878l-134.416,96.599  l45.47,45.47l-116.533,70.658L275.787,511.245z" fill="#c7c7c7" data-original="#121149" class=""/>
<path xmlns="http://www.w3.org/2000/svg" style="" d="M296.439,113.693H171.613c-11.729,0-21.237,9.509-21.237,21.237v242.14  c0,11.729,9.509,21.237,21.237,21.237h168.774c11.729,0,21.237-9.509,21.237-21.237V178.878L296.439,113.693z" fill="#ffffff" data-original="#008afe" class=""/>
<g xmlns="http://www.w3.org/2000/svg">
	<rect x="184.785" y="237.416" style="" width="141.234" height="10.261" fill="#c7c7c7" data-original="#ffffff" class=""/>
	<rect x="184.785" y="262.775" style="" width="141.234" height="10.261" fill="#c7c7c7" data-original="#ffffff" class=""/>
	<rect x="184.785" y="291.306" style="" width="141.234" height="10.261" fill="#c7c7c7" data-original="#ffffff" class=""/>
	<rect x="184.785" y="317.871" style="" width="73.635" height="10.261" fill="#c7c7c7" data-original="#ffffff" class=""/>
</g>
<path xmlns="http://www.w3.org/2000/svg" style="" d="M317.676,178.878h43.948l-65.184-65.184v43.948C296.439,169.37,305.947,178.878,317.676,178.878z" fill="#959595" data-original="#55c2f9" class=""/>
<g xmlns="http://www.w3.org/2000/svg">
</g>
<g xmlns="http://www.w3.org/2000/svg">
</g>
<g xmlns="http://www.w3.org/2000/svg">
</g>
<g xmlns="http://www.w3.org/2000/svg">
</g>
<g xmlns="http://www.w3.org/2000/svg">
</g>
<g xmlns="http://www.w3.org/2000/svg">
</g>
<g xmlns="http://www.w3.org/2000/svg">
</g>
<g xmlns="http://www.w3.org/2000/svg">
</g>
<g xmlns="http://www.w3.org/2000/svg">
</g>
<g xmlns="http://www.w3.org/2000/svg">
</g>
<g xmlns="http://www.w3.org/2000/svg">
</g>
<g xmlns="http://www.w3.org/2000/svg">
</g>
<g xmlns="http://www.w3.org/2000/svg">
</g>
<g xmlns="http://www.w3.org/2000/svg">
</g>
<g xmlns="http://www.w3.org/2000/svg">
</g>
</g></svg>
