<svg enable-background="new 0 0 512 512" viewBox="0 0 512 512" xmlns="http://www.w3.org/2000/svg"><circle cx="256" cy="256" fill="#c2e2ef" r="256"/><g fill="#fff" transform="matrix(.65 0 0 .65 89.6 89.6)"><path d="m144.2 446.8h223.6c18.5 0 33.5-15 33.5-33.5v-236.3h-78.2c-18.5 0-33.5-15-33.5-33.5v-78.3h-145.4c-18.5 0-33.5 15-33.5 33.5v314.5c0 18.5 15 33.6 33.5 33.6zm44.7-224.3h134.1c6.2 0 11.2 5 11.2 11.2s-5 11.2-11.2 11.2h-134.1c-6.2 0-11.2-5-11.2-11.2s5.1-11.2 11.2-11.2zm0 44.7h134.1c6.2 0 11.2 5 11.2 11.2s-5 11.2-11.2 11.2h-134.1c-6.2 0-11.2-5-11.2-11.2.1-6.2 5.1-11.2 11.2-11.2zm0 44.7h134.1c6.2 0 11.2 5 11.2 11.2s-5 11.2-11.2 11.2h-134.1c-6.2 0-11.2-5-11.2-11.2.1-6.2 5.1-11.2 11.2-11.2zm0 44.7h89.4c6.2 0 11.2 5 11.2 11.2s-5 11.2-11.2 11.2h-89.4c-6.2 0-11.2-5-11.2-11.2s5.1-11.2 11.2-11.2z"/><path d="m323.1 154.7h71.7l-82.9-82.9v71.7c0 6.1 5 11.2 11.2 11.2z"/></g></svg>