<?xml version="1.0"?>
<svg xmlns="http://www.w3.org/2000/svg" xmlns:xlink="http://www.w3.org/1999/xlink" xmlns:svgjs="http://svgjs.com/svgjs" version="1.1" width="512" height="512" x="0" y="0" viewBox="0 0 512 512" style="enable-background:new 0 0 512 512" xml:space="preserve" class=""><circle r="256" cx="256" cy="256" fill="#ffffff" shape="circle" transform="matrix(0.75,0,0,0.75,64,64)"/><g transform="matrix(0.96,0,0,0.96,10.240000000000009,10.240000000000009)"><path xmlns="http://www.w3.org/2000/svg" d="m241.574219 210.210938-82.953125 87.828124 75.492187-41.421874 39.445313 41.421874 82.488281-87.828124-74.65625 40.695312zm0 0" fill="#ffb38a" data-original="#000000" style="" class=""/><path xmlns="http://www.w3.org/2000/svg" d="m256 0c-141.363281 0-256 114.636719-256 256s114.636719 256 256 256 256-114.636719 256-256-114.636719-256-256-256zm2 393.035156c-15.847656 0-31.144531-2.238281-45.535156-6.382812l-51.625 29.347656v-55.210938c-34.578125-26.3125-56.660156-66.386718-56.660156-111.269531 0-79.265625 68.867187-143.519531 153.820312-143.519531 84.957031 0 153.820312 64.253906 153.820312 143.519531 0 79.257813-68.863281 143.515625-153.820312 143.515625zm0 0" fill="#ffb38a" data-original="#000000" style="" class=""/></g></svg>
