<svg enable-background="new 0 0 512 512" viewBox="0 0 512 512" xmlns="http://www.w3.org/2000/svg" xmlns:xlink="http://www.w3.org/1999/xlink"><clipPath id="a"><path d="m1 1h1l-1 1z"/></clipPath><clipPath id="b" clip-path="url(#a)"><path d="m-1-1h-1l1-1z"/></clipPath><linearGradient id="c"><stop offset=".00444436"/><stop offset=".09062083" stop-color="#0f0f0f"/><stop offset=".2569" stop-color="#373737"/><stop offset=".4865" stop-color="#777"/><stop offset=".7675" stop-color="#cecece"/><stop offset=".9145" stop-color="#fff"/></linearGradient><linearGradient id="d" gradientTransform="matrix(1.0659 -.0198 .0218 1.1782 208.269 -927.6486)" gradientUnits="userSpaceOnUse" x1="182.6158" x2="-69.3077" xlink:href="#c" y1="1127.9564" y2="1123.7332"/><linearGradient id="e"><stop offset=".00444436"/><stop offset=".9145"/></linearGradient><linearGradient id="f" gradientTransform="matrix(1.0659 -.0198 .0218 1.1782 208.269 -927.6486)" gradientUnits="userSpaceOnUse" x1="182.6158" x2="-69.3077" xlink:href="#e" y1="1127.9564" y2="1123.7332"/><clipPath id="g"><path d="m1 1h1l-1 1z"/></clipPath><clipPath id="h" clip-path="url(#g)"><path d="m-1-1h-1l1-1z"/></clipPath><linearGradient id="i" gradientUnits="userSpaceOnUse" x1="251.45" x2="251.45" y1="367.7625" y2="360.555"><stop offset=".00444436"/><stop offset=".04578519" stop-color="#191919"/><stop offset=".1414" stop-color="#4f4f4f"/><stop offset=".2408" stop-color="#7e7e7e"/><stop offset=".342" stop-color="#a6a6a6"/><stop offset=".4455" stop-color="#c6c6c6"/><stop offset=".5518" stop-color="#dfdfdf"/><stop offset=".6622" stop-color="#f1f1f1"/><stop offset=".7793" stop-color="#fcfcfc"/><stop offset=".9145" stop-color="#fff"/></linearGradient><linearGradient id="j" gradientUnits="userSpaceOnUse" x1="251.45" x2="251.45" y1="367.7625" y2="360.555"><stop offset=".00444436"/><stop offset=".0648531"/><stop offset=".9145"/></linearGradient><clipPath id="k"><path d="m1 1h1l-1 1z"/></clipPath><clipPath id="l" clip-path="url(#k)"><path d="m-1-1h-1l1-1z"/></clipPath><linearGradient id="m" gradientUnits="userSpaceOnUse" x1="96.9927" x2="247.5576" xlink:href="#c" y1="176.435" y2="326.9999"/><linearGradient id="n" gradientUnits="userSpaceOnUse" x1="96.9927" x2="247.5576" xlink:href="#e" y1="176.435" y2="326.9999"/><clipPath id="o"><path d="m1 1h1l-1 1z"/></clipPath><clipPath id="p" clip-path="url(#o)"><path d="m-1-1h-1l1-1z"/></clipPath><linearGradient id="q" gradientUnits="userSpaceOnUse" x1="319.1723" x2="328.7405" xlink:href="#c" y1="302.45" y2="302.45"/><linearGradient id="r" gradientUnits="userSpaceOnUse" x1="319.1723" x2="328.7405" xlink:href="#e" y1="302.45" y2="302.45"/><clipPath id="s"><path d="m1 1h1l-1 1z"/></clipPath><clipPath id="t" clip-path="url(#s)"><path d="m-1-1h-1l1-1z"/></clipPath><linearGradient id="u" gradientUnits="userSpaceOnUse" x1="299.3621" x2="312.8621" xlink:href="#c" y1="307.65" y2="307.65"/><linearGradient id="v" gradientUnits="userSpaceOnUse" x1="299.3621" x2="312.8621" xlink:href="#e" y1="307.65" y2="307.65"/><clipPath id="w"><path d="m1 1h1l-1 1z"/></clipPath><clipPath id="x" clip-path="url(#w)"><path d="m-1-1h-1l1-1z"/></clipPath><linearGradient id="y" gradientUnits="userSpaceOnUse" x1="279.7397" x2="293.0012" xlink:href="#c" y1="311" y2="311"/><linearGradient id="z" gradientUnits="userSpaceOnUse" x1="279.7397" x2="293.0012" xlink:href="#e" y1="311" y2="311"/><clipPath id="A"><path d="m1 1h1l-1 1z"/></clipPath><clipPath id="B" clip-path="url(#A)"><path d="m-1-1h-1l1-1z"/></clipPath><linearGradient id="C" gradientUnits="userSpaceOnUse" x1="237.0485" x2="248.3893" xlink:href="#c" y1="312.2" y2="312.2"/><linearGradient id="D" gradientUnits="userSpaceOnUse" x1="237.0485" x2="248.3893" xlink:href="#e" y1="312.2" y2="312.2"/><clipPath id="E"><path d="m1 1h1l-1 1z"/></clipPath><clipPath id="F" clip-path="url(#E)"><path d="m-1-1h-1l1-1z"/></clipPath><linearGradient id="G" gradientUnits="userSpaceOnUse" x1="178.7" x2="189.4524" xlink:href="#c" y1="301.4" y2="301.4"/><linearGradient id="H" gradientUnits="userSpaceOnUse" x1="178.7" x2="189.4524" xlink:href="#e" y1="301.4" y2="301.4"/><clipPath id="I"><path d="m1 1h1l-1 1z"/></clipPath><clipPath id="J" clip-path="url(#I)"><path d="m-1-1h-1l1-1z"/></clipPath><linearGradient id="K" gradientUnits="userSpaceOnUse" x1="215.6" x2="228.9476" xlink:href="#c" y1="310.35" y2="310.35"/><linearGradient id="L" gradientUnits="userSpaceOnUse" x1="215.6" x2="228.9476" xlink:href="#e" y1="310.35" y2="310.35"/><clipPath id="M"><path d="m1 1h1l-1 1z"/></clipPath><clipPath id="N" clip-path="url(#M)"><path d="m-1-1h-1l1-1z"/></clipPath><linearGradient id="O" gradientUnits="userSpaceOnUse" x1="258.6175" x2="271.5424" xlink:href="#c" y1="312.6" y2="312.6"/><linearGradient id="P" gradientUnits="userSpaceOnUse" x1="258.6175" x2="271.5424" xlink:href="#e" y1="312.6" y2="312.6"/><clipPath id="Q"><path d="m1 1h1l-1 1z"/></clipPath><clipPath id="R" clip-path="url(#Q)"><path d="m-1-1h-1l1-1z"/></clipPath><linearGradient id="S" gradientUnits="userSpaceOnUse" x1="195.8564" x2="209.3385" xlink:href="#c" y1="306.6" y2="306.6"/><linearGradient id="T" gradientUnits="userSpaceOnUse" x1="195.8564" x2="209.3385" xlink:href="#e" y1="306.6" y2="306.6"/><linearGradient id="U"><stop offset=".0152862" stop-color="#ffefe4"/><stop offset=".5108" stop-color="#fff8f4"/><stop offset="1" stop-color="#fff"/></linearGradient><linearGradient id="V" gradientUnits="userSpaceOnUse" x1="225.8662" x2="230.8416" xlink:href="#U" y1="379.6786" y2="379.6786"/><linearGradient id="W" gradientUnits="userSpaceOnUse" x1="219.2576" x2="222.6947" xlink:href="#U" y1="378.0473" y2="378.0473"/><linearGradient id="X" gradientTransform="matrix(-1 0 0 1 720.4846 364)" gradientUnits="userSpaceOnUse" x1="441.8003" x2="443.9398" xlink:href="#U" y1="11.2705" y2="11.2705"/><linearGradient id="Y" gradientTransform="matrix(-1 0 0 1 720.4846 364)" gradientUnits="userSpaceOnUse" x1="438.9584" x2="440.4365" xlink:href="#U" y1="10.5293" y2="10.5293"/><linearGradient id="Z" gradientTransform="matrix(.885 -.4656 .4656 .885 7698.0625 116.9559)" gradientUnits="userSpaceOnUse" x1="-6718.8374" x2="-6755.0073" xlink:href="#U" y1="-3501.3635" y2="-3501.3635"/><linearGradient id="aa" gradientTransform="matrix(.9489 .3157 -.3157 .9489 -49.1045 321.7164)" gradientUnits="userSpaceOnUse" x1="122.5382" x2="73.8105" xlink:href="#U" y1="-251.8952" y2="-251.8952"/><linearGradient id="ab" gradientTransform="matrix(.9799 .1993 -.1993 .9799 -37.0112 327.6937)" gradientUnits="userSpaceOnUse" x1="156.7107" x2="138.1086" xlink:href="#U" y1="-264.0013" y2="-264.0013"/><circle cx="256" cy="256" fill="#f4bd46" r="256"/><path clip-path="url(#b)" d="m427.5 395.2c.2 9.8-59.8 18.8-134 20.2s-134.5-5.4-134.6-15.2c-.2-9.8 59.8-18.8 134-20.2 74.1-1.4 134.4 5.4 134.6 15.2z" fill="url(#d)"/><path d="m427.5 395.2c.2 9.8-59.8 18.8-134 20.2s-134.5-5.4-134.6-15.2c-.2-9.8 59.8-18.8 134-20.2 74.1-1.4 134.4 5.4 134.6 15.2z" fill="url(#f)" opacity=".2"/><ellipse cx="251.1" cy="371.2" fill="#ece4d2" rx="19.3" ry="11.6"/><path clip-path="url(#h)" d="m240.2 368.8c5.6.8 11.2 1.4 16.8 1.7 4.4.3 8.8.4 13.3.5-.2-6.3-8.7-11.4-19.3-11.4-8.7 0-16 3.5-18.4 8.2 2.6.4 5.3.6 7.6 1z" fill="url(#i)"/><path d="m240.2 368.8c5.6.8 11.2 1.4 16.8 1.7 4.4.3 8.8.4 13.3.5-.2-6.3-8.7-11.4-19.3-11.4-8.7 0-16 3.5-18.4 8.2 2.6.4 5.3.6 7.6 1z" fill="url(#j)" opacity=".16"/><path d="m347 341.1c-1.1-1.2-2.2-2.3-3.3-3.5-14.9-16.8-18.4-42.4-20-63.9-1.6-22.8-.9-46-6.1-68.4s-22-41.3-44.6-48.9c-.2-2.2-.7-4.4-1.3-6.3-1.5-4.6-4.4-8.5-9.4-11.1-9.4-5-20.4-1.5-25.3 7.9-1.2 2.3-2.1 5.5-2.3 8.6-10.1 2.8-19.6 7.9-27.4 15-15.4 14.1-21.4 36.4-23.4 56.4-1.8 17.1-.2 33.3-1 50.5-.6 11.9-2.3 24.8-5.6 36.3-1.7 5.8-4.1 11.5-7.5 16.6-2.9 4.4-7.3 7.5-10 12-1 1.7-1.9 3.1-1.5 5.1 1 4.5 7.5 6.7 11.2 8 8.1 2.9 16.8 4.3 25.3 5.5 23.7 3.3 47.8 4 71.7 3.5 21.5-.4 43.8-1.4 64.7-6.6 5.4-1.3 12.6-3 16.5-7.2 3.2-3.6 1.8-6.6-.7-9.5zm-103.5-187.6c1.2-4.7 4.2-9 9.5-9.5 7.2-.6 9.6 4.3 10.8 9.9-6.8-1.2-13.6-1.3-20.3-.4z" fill="#886bf7"/><path clip-path="url(#l)" d="m347 341.3c-1.1-1.2-2.2-2.3-3.3-3.5-9.6-10.8-13.3-21.9-16.3-36.4-.3-1.7-1.2-5.6-1.2-6.3 0-2.5-6.1-3-8.4-4.1-22.5-10.2-46-18.8-67.8-30.4-11.6-6.2-22.6-13.5-32.8-21.6-5.1-4.1-10.1-8.4-14.8-12.9-4.9-4.7-6.8-7.6-8.8-14-.7-2.1-1.2-4.2-1.8-6.4-.4-1.8-.6-4.6-1.6-6.1-1.7.6-2.7 5.7-3.2 7.3-.8 2.8-1.4 5.6-1.9 8.4-.9 5.5-1.3 11-1.7 16.5-.9 13 0 17.2 0 23.6.1 7.7-.2 14.3-.6 22.1-.6 11.9-2.3 24.8-5.6 36.3-1.7 5.8-4.1 11.5-7.5 16.6-2.9 4.4-7.3 7.5-10 12-1 1.7-1.9 3.1-1.5 5.1 1 4.5 7.5 6.7 11.2 8 8.1 2.9 16.8 4.3 25.3 5.5 23.7 3.3 47.8 4 71.7 3.5 21.5-.4 43.8-1.4 64.7-6.6 5.4-1.3 12.6-3 16.5-7.2 3.3-3.5 1.9-6.5-.6-9.4z" fill="url(#m)"/><path d="m347 341.3c-1.1-1.2-2.2-2.3-3.3-3.5-9.6-10.8-13.3-21.9-16.3-36.4-.3-1.7-1.2-5.6-1.2-6.3 0-2.5-6.1-3-8.4-4.1-22.5-10.2-46-18.8-67.8-30.4-11.6-6.2-22.6-13.5-32.8-21.6-5.1-4.1-10.1-8.4-14.8-12.9-4.9-4.7-6.8-7.6-8.8-14-.7-2.1-1.2-4.2-1.8-6.4-.4-1.8-.6-4.6-1.6-6.1-1.7.6-2.7 5.7-3.2 7.3-.8 2.8-1.4 5.6-1.9 8.4-.9 5.5-1.3 11-1.7 16.5-.9 13 0 17.2 0 23.6.1 7.7-.2 14.3-.6 22.1-.6 11.9-2.3 24.8-5.6 36.3-1.7 5.8-4.1 11.5-7.5 16.6-2.9 4.4-7.3 7.5-10 12-1 1.7-1.9 3.1-1.5 5.1 1 4.5 7.5 6.7 11.2 8 8.1 2.9 16.8 4.3 25.3 5.5 23.7 3.3 47.8 4 71.7 3.5 21.5-.4 43.8-1.4 64.7-6.6 5.4-1.3 12.6-3 16.5-7.2 3.3-3.5 1.9-6.5-.6-9.4z" fill="url(#n)" opacity=".16"/><path d="m182.4 283s83.6 19.9 142.2 1.2c0 0-.6-5.1-.9-10.5 0 0-59.7 17.6-140.7-2.2 0 0-.4 9.2-.5 10.4z" fill="#ece4d2"/><path d="m181.5 292.2s76.2 23.5 144.3 1c0 0 1.2 8.5 3 14.5s-80.4 30.1-150 0c-.1-.1 2.5-14.2 2.7-15.5z" fill="#ece4d2"/><g opacity=".12"><path clip-path="url(#p)" d="m328.7 307.6c-1.8-6-3-14.5-3-14.5-2.2.7-4.4 1.4-6.6 2l3.6 16.7c4.2-1.6 6.3-3.2 6-4.2z" fill="url(#q)"/><path d="m328.7 307.6c-1.8-6-3-14.5-3-14.5-2.2.7-4.4 1.4-6.6 2l3.6 16.7c4.2-1.6 6.3-3.2 6-4.2z" fill="url(#r)"/><path clip-path="url(#t)" d="m299.4 299.7 3.8 17.9c3.5-.8 6.8-1.6 9.7-2.4l-3.7-17.5c-3.3.8-6.6 1.4-9.8 2z" fill="url(#u)"/><path d="m299.4 299.7 3.8 17.9c3.5-.8 6.8-1.6 9.7-2.4l-3.7-17.5c-3.3.8-6.6 1.4-9.8 2z" fill="url(#v)"/><path clip-path="url(#x)" d="m279.7 302.1 2.2 18.8c3.9-.4 7.6-.9 11.1-1.5l-3.9-18.3c-3.1.5-6.3.8-9.4 1z" fill="url(#y)"/><path d="m279.7 302.1 2.2 18.8c3.9-.4 7.6-.9 11.1-1.5l-3.9-18.3c-3.1.5-6.3.8-9.4 1z" fill="url(#z)"/><path clip-path="url(#B)" d="m239.3 302.1-2.2 19.5c3.8.3 7.9.5 11.3.7v-19.6c-2.9-.2-6.2-.3-9.1-.6z" fill="url(#C)"/><path d="m239.3 302.1-2.2 19.5c3.8.3 7.9.5 11.3.7v-19.6c-2.9-.2-6.2-.3-9.1-.6z" fill="url(#D)"/><path clip-path="url(#F)" d="m181.5 292.2c-.2 1.3-2.8 15.5-2.8 15.5 2.4 1 4.8 2 7.3 2.9l3.5-16.2c-5.2-1.3-8-2.2-8-2.2z" fill="url(#G)"/><path d="m181.5 292.2c-.2 1.3-2.8 15.5-2.8 15.5 2.4 1 4.8 2 7.3 2.9l3.5-16.2c-5.2-1.3-8-2.2-8-2.2z" fill="url(#H)"/><path clip-path="url(#J)" d="m219.6 300.1-4 18.7c3.7.7 7.4 1.3 11.1 1.8l2.2-19.3c-3.2-.4-6.3-.8-9.3-1.2z" fill="url(#K)"/><path d="m219.6 300.1-4 18.7c3.7.7 7.4 1.3 11.1 1.8l2.2-19.3c-3.2-.4-6.3-.8-9.3-1.2z" fill="url(#L)"/><path clip-path="url(#N)" d="m258.6 302.9v19.5c4.5-.1 8.8-.2 12.9-.5l-2.2-19.1c-3.6.1-7.3.1-10.7.1z" fill="url(#O)"/><path d="m258.6 302.9v19.5c4.5-.1 8.8-.2 12.9-.5l-2.2-19.1c-3.6.1-7.3.1-10.7.1z" fill="url(#P)"/><path clip-path="url(#R)" d="m199.5 296.6-3.7 17.3c3.2 1 6.4 1.9 9.6 2.7l3.9-18.1c-3.5-.7-6.8-1.3-9.8-1.9z" fill="url(#S)"/><path d="m199.5 296.6-3.7 17.3c3.2 1 6.4 1.9 9.6 2.7l3.9-18.1c-3.5-.7-6.8-1.3-9.8-1.9z" fill="url(#T)"/></g><path d="m266.9 374c-1.1.2-2.3-.5-2.8-1.6-1-2.5 1.8-5.1 3.9-2.9 1.4 1.3.9 4.2-1.1 4.5z" fill="#fff"/><path d="m265 370.5c0-.1.1-.3.3-.4.2-.2.6-.2.9-.1.4.1.5.6.4.9-.1.2-.3.4-.6.4-.4.1-.7-.1-.9-.4-.1-.1-.1-.3-.1-.4z"/><path d="m238.3 373.9c1.1.2 2.3-.5 2.8-1.6 1-2.5-1.8-5.1-3.9-2.9-1.4 1.3-.9 4.2 1.1 4.5z" fill="#fff"/><path d="m240.2 370.4c0-.1-.1-.3-.3-.4-.2-.2-.6-.2-.9-.1-.4.1-.5.6-.4.9.1.2.3.4.6.4.4.1.7-.1.9-.4.1-.1.1-.3.1-.4z"/><path d="m230.6 383.1c-2.7-1.7-4.5-4.2-4.3-7.5 0-.2-.3-.3-.4-.1-.5 3.3 1.1 7.1 4.3 8.4.6.3.9-.5.4-.8z" fill="url(#V)"/><path d="m222.6 382.6c-2.3-2.5-2.9-5.8-1.8-8.9.2-.5-.7-.9-.9-.4-1.5 3.4-.5 7.3 2.3 9.6.3.3.6 0 .4-.3z" fill="url(#W)"/><path d="m276.6 376.7c1.2-.7 1.9-1.8 1.8-3.2 0-.1.1-.1.2 0 .2 1.4-.5 3-1.9 3.6-.1.1-.2-.3-.1-.4z" fill="url(#X)"/><path d="m280.1 376.5c1-1.1 1.2-2.5.8-3.8-.1-.2.3-.4.4-.2.6 1.4.2 3.2-1 4.1-.2.1-.3 0-.2-.1z" fill="url(#Y)"/><path d="m126.4 156.8-9.5-6.8c-.1-.1-.3-.1-.4.1l-12 16.7c-.1.1-.2.2-.4.1l-15.4-5.3c-.2-.1-.2-.2-.2-.4l3.7-12c.1-.2.3-.3.5-.1l9.7 7.9c.1.1.3.1.4 0l13.3-13.9c.1-.1.4-.1.5 0l10.1 13.3c.3.2 0 .6-.3.4z" fill="url(#Z)"/><path d="m141.9 135.2-18.8-15.8c-.1-.1-.2-.2-.1-.4l4.6-14c.1-.2-.1-.5-.4-.5l-15.7 2.4c-.3 0-.5-.2-.4-.5l3.7-11.2c.1-.2-.1-.5-.4-.5l-10.6 1.5c-.2 0-.3.2-.3.3l-1.6 20.5c0 .2.2.4.4.4l16.9-4.6c.3-.1.5.2.4.4l-3 8.9c-.1.2 0 .3.2.4l24.5 13c.6.4.9-.1.6-.3z" fill="url(#aa)"/><path d="m164 124.4-8.3-20.3s0 0 0-.1l8.5-10.9s0 0 0-.1l-9.6-14.6v-.1l7.2-4.8h.1l8.4 20.6v.1l-8.5 10.9 2.3 19c0 .3-.1.4-.1.3z" fill="url(#ab)"/></svg>