<svg enable-background="new 0 0 512 512" viewBox="0 0 512 512" xmlns="http://www.w3.org/2000/svg"><g fill="none" stroke="#f4bd46" stroke-miterlimit="10" stroke-width="21"><path d="m219.6 74.6v-25.5c0-16.6 16.3-30.1 36.3-30.1s36.3 13.6 36.3 30.1v25.3"/><path d="m326.2 433.4c0 38.8-31.5 66.6-70.3 66.6s-70.3-27.8-70.3-66.6"/><path d="m426.6 436.8h-341.3c-16.6 0-30.1-13.6-30.1-30.1 0-8.9 3.9-17.2 10.6-22.8 31.7-26.7 49.7-65.7 49.7-106.9v-61c0-77.5 63-140.6 140.6-140.6s140.6 63 140.6 140.6v60.9c0 41.2 18.1 80.2 49.6 106.6 6.9 5.8 10.8 14.3 10.8 23-.4 16.9-13.9 30.3-30.5 30.3z"/></g></svg>