<svg enable-background="new 0 0 512 512" viewBox="0 0 512 512" xmlns="http://www.w3.org/2000/svg"><circle cx="256" cy="256" fill="#ffbcb5" r="256"/><g fill="#fff" transform="matrix(.67 0 0 .67 84.478098 117.602852)"><path d="m152 353.5c-29 0-54.7-18.5-64.1-46.2l-.6-2.1c-2.2-7.3-3.1-13.5-3.1-19.6v-123.3l-44 146.5c-5.6 21.5 7.2 43.9 28.8 49.8l279.8 74.9c3.5.9 7 1.3 10.4 1.3 18 0 34.5-12 39.1-29.6l16.3-51.8h-262.6z"/><path d="m201.7 163.5c20 0 36.2-16.2 36.2-36.2s-16.2-36.2-36.2-36.2-36.2 16.2-36.2 36.2 16.3 36.2 36.2 36.2z"/><path d="m427.9 36.9h-271.4c-24.9 0-45.2 20.3-45.2 45.2v199c0 24.9 20.3 45.2 45.2 45.2h271.4c24.9 0 45.2-20.3 45.2-45.2v-199c0-24.9-20.3-45.2-45.2-45.2zm-271.4 36.2h271.4c5 0 9 4.1 9 9v128.4l-57.2-66.7c-6.1-7.1-14.8-10.9-24.3-11.1-9.4.1-18.2 4.2-24.2 11.4l-67.2 80.7-21.8-21.8c-12.4-12.4-32.5-12.4-44.9 0l-49.9 49.9v-170.8c0-5 4.1-9 9.1-9z"/></g></svg>