<svg enable-background="new 0 0 512 512" viewBox="0 0 512 512" xmlns="http://www.w3.org/2000/svg"><circle cx="245" cy="248" fill="none" r="231" stroke="#f4bd46" stroke-miterlimit="10" stroke-width="5"/><circle cx="245" cy="248" fill="#5d54c1" r="170.6" stroke="#f4bd46" stroke-miterlimit="10" stroke-width="4"/><path d="m256.7 29.3c-127.3 0-230.5 103.2-230.5 230.5s103.2 230.5 230.5 230.5 230.5-103.2 230.5-230.5-103.2-230.5-230.5-230.5zm0 69c42.1 0 76.3 34.1 76.3 76.3 0 42.1-34.1 76.3-76.3 76.3-42.1 0-76.2-34.1-76.2-76.3s34.1-76.3 76.2-76.3zm-.1 331.8c-42 0-80.5-15.3-110.2-40.6-7.2-6.2-11.4-15.2-11.4-24.7 0-42.7 34.6-76.9 77.3-76.9h88.7c42.7 0 77.2 34.2 77.2 76.9 0 9.5-4.2 18.5-11.4 24.7-29.6 25.3-68.1 40.6-110.2 40.6z" fill="#dcdcff" transform="matrix(.95 0 0 .95 1.1383 1.1383)"/><circle cx="405" cy="396" fill="#fff" r="76" stroke="#f4bd46" stroke-miterlimit="10" stroke-width="4"/><path d="m418.8 397.9c0 7.6-6.2 13.8-13.8 13.8s-13.8-6.2-13.8-13.8 6.2-13.8 13.8-13.8 13.8 6.2 13.8 13.8zm29-19.6v39.3c0 5.2-4.3 9.5-9.5 9.5h-66.7c-5.2 0-9.5-4.3-9.5-9.5v-39.3c0-5.2 4.3-9.5 9.5-9.5h11.7v-3.3c0-4.6 3.7-8.3 8.3-8.3h26.9c4.6 0 8.3 3.7 8.3 8.3v3.3h11.7c5.1 0 9.3 4.2 9.3 9.5zm-21.9 19.6c0-11.5-9.4-20.9-20.9-20.9s-20.9 9.4-20.9 20.9 9.4 20.9 20.9 20.9c11.6 0 20.9-9.3 20.9-20.9z" fill="#5d54c1"/></svg>