<?xml version="1.0" encoding="utf-8"?>
<!-- Generator: Adobe Illustrator 24.3.0, SVG Export Plug-In . SVG Version: 6.00 Build 0)  -->
<svg version="1.1" id="Layer_1" xmlns:svgjs="http://svgjs.com/svgjs"
	 xmlns="http://www.w3.org/2000/svg" xmlns:xlink="http://www.w3.org/1999/xlink" x="0px" y="0px" viewBox="0 0 512 512"
	 style="enable-background:new 0 0 512 512;" xml:space="preserve">
<style type="text/css">
	.st0{fill:#F4BD46;}
	.st1{fill:#FFFFFF;}
</style>
<g>
	<g>
		<g>
			<g>
				<path class="st0" d="M461.2,0.4H50.8C23,0.4,0.4,23,0.4,50.8v410.4c0,27.8,22.6,50.4,50.4,50.4h410.4
					c27.8,0,50.4-22.6,50.4-50.4V50.8C511.6,23,489,0.4,461.2,0.4z"/>
			</g>
		</g>
	</g>
</g>
<g>
	<g>
		<path class="st1" d="M376.3,193.5L225.9,344c-1.3,1.3-3.5,1.3-4.8,0l-85.4-85.4c-1.3-1.3-1.3-3.5,0-4.8l20.8-20.8
			c1.3-1.3,3.5-1.3,4.8,0l62.3,62.3L350.8,168c1.3-1.3,3.5-1.3,4.8,0l20.8,20.8C377.7,190.1,377.7,192.2,376.3,193.5z"/>
	</g>
</g>
</svg>
