<svg enable-background="new 0 0 512 512" viewBox="0 0 512 512" xmlns="http://www.w3.org/2000/svg"><circle cx="256" cy="256" fill="#f9dc9e" r="256"/><g fill="#fff" transform="matrix(.7 0 0 .7 70.195198 70.195205)"><path d="m292.2 145.6h-186c-24.5 0-44.6 20.1-44.6 44.6v150.4c0 24.5 20.1 44.6 44.6 44.6h186.1c24.5 0 44.6-20.1 44.6-44.6v-150.3c-.1-25-20.2-44.7-44.7-44.7z"/><path d="m436.3 170.2c-2.7.4-5.4 1.8-7.6 3.1l-69.6 40.2v103.5l70 40.2c12.9 7.6 29 3.1 36.6-9.8 2.2-4 3.6-8.5 3.6-13.4v-137.9c0-16.6-15.6-29.9-33-25.9z"/></g></svg>